G04 #@! TF.GenerationSoftware,KiCad,Pcbnew,5.1.6-c6e7f7d~87~ubuntu18.04.1*
G04 #@! TF.CreationDate,2020-08-27T22:21:22+02:00*
G04 #@! TF.ProjectId,PeakHoldPWMDriver,5065616b-486f-46c6-9450-574d44726976,rev?*
G04 #@! TF.SameCoordinates,Original*
G04 #@! TF.FileFunction,Soldermask,Bot*
G04 #@! TF.FilePolarity,Negative*
%FSLAX46Y46*%
G04 Gerber Fmt 4.6, Leading zero omitted, Abs format (unit mm)*
G04 Created by KiCad (PCBNEW 5.1.6-c6e7f7d~87~ubuntu18.04.1) date 2020-08-27 22:21:22*
%MOMM*%
%LPD*%
G01*
G04 APERTURE LIST*
%ADD10C,0.100000*%
G04 APERTURE END LIST*
D10*
G36*
X202166098Y-109397033D02*
G01*
X202630350Y-109589332D01*
X202630352Y-109589333D01*
X203048168Y-109868509D01*
X203403491Y-110223832D01*
X203682667Y-110641648D01*
X203682668Y-110641650D01*
X203874967Y-111105902D01*
X203973000Y-111598747D01*
X203973000Y-112101253D01*
X203874967Y-112594098D01*
X203699287Y-113018228D01*
X203682667Y-113058352D01*
X203403491Y-113476168D01*
X203048168Y-113831491D01*
X202630352Y-114110667D01*
X202630351Y-114110668D01*
X202630350Y-114110668D01*
X202166098Y-114302967D01*
X201673253Y-114401000D01*
X201170747Y-114401000D01*
X200677902Y-114302967D01*
X200213650Y-114110668D01*
X200213649Y-114110668D01*
X200213648Y-114110667D01*
X199795832Y-113831491D01*
X199440509Y-113476168D01*
X199161333Y-113058352D01*
X199144713Y-113018228D01*
X198969033Y-112594098D01*
X198871000Y-112101253D01*
X198871000Y-111598747D01*
X198969033Y-111105902D01*
X199161332Y-110641650D01*
X199161333Y-110641648D01*
X199440509Y-110223832D01*
X199795832Y-109868509D01*
X200213648Y-109589333D01*
X200213650Y-109589332D01*
X200677902Y-109397033D01*
X201170747Y-109299000D01*
X201673253Y-109299000D01*
X202166098Y-109397033D01*
G37*
G36*
X126474098Y-109397033D02*
G01*
X126938350Y-109589332D01*
X126938352Y-109589333D01*
X127356168Y-109868509D01*
X127711491Y-110223832D01*
X127990667Y-110641648D01*
X127990668Y-110641650D01*
X128182967Y-111105902D01*
X128281000Y-111598747D01*
X128281000Y-112101253D01*
X128182967Y-112594098D01*
X128007287Y-113018228D01*
X127990667Y-113058352D01*
X127711491Y-113476168D01*
X127356168Y-113831491D01*
X126938352Y-114110667D01*
X126938351Y-114110668D01*
X126938350Y-114110668D01*
X126474098Y-114302967D01*
X125981253Y-114401000D01*
X125478747Y-114401000D01*
X124985902Y-114302967D01*
X124521650Y-114110668D01*
X124521649Y-114110668D01*
X124521648Y-114110667D01*
X124103832Y-113831491D01*
X123748509Y-113476168D01*
X123469333Y-113058352D01*
X123452713Y-113018228D01*
X123277033Y-112594098D01*
X123179000Y-112101253D01*
X123179000Y-111598747D01*
X123277033Y-111105902D01*
X123469332Y-110641650D01*
X123469333Y-110641648D01*
X123748509Y-110223832D01*
X124103832Y-109868509D01*
X124521648Y-109589333D01*
X124521650Y-109589332D01*
X124985902Y-109397033D01*
X125478747Y-109299000D01*
X125981253Y-109299000D01*
X126474098Y-109397033D01*
G37*
G36*
X138880463Y-110345229D02*
G01*
X139248228Y-110456790D01*
X139587162Y-110637954D01*
X139884240Y-110881760D01*
X140128046Y-111178838D01*
X140309210Y-111517772D01*
X140420771Y-111885537D01*
X140458440Y-112268000D01*
X140420771Y-112650463D01*
X140309210Y-113018228D01*
X140128046Y-113357162D01*
X139884240Y-113654240D01*
X139587162Y-113898046D01*
X139248228Y-114079210D01*
X138880463Y-114190771D01*
X138593847Y-114219000D01*
X134202153Y-114219000D01*
X133915537Y-114190771D01*
X133547772Y-114079210D01*
X133208838Y-113898046D01*
X132911760Y-113654240D01*
X132667954Y-113357162D01*
X132486790Y-113018228D01*
X132375229Y-112650463D01*
X132337560Y-112268000D01*
X132375229Y-111885537D01*
X132486790Y-111517772D01*
X132667954Y-111178838D01*
X132911760Y-110881760D01*
X133208838Y-110637954D01*
X133547772Y-110456790D01*
X133915537Y-110345229D01*
X134202153Y-110317000D01*
X138593847Y-110317000D01*
X138880463Y-110345229D01*
G37*
G36*
X148180463Y-110345229D02*
G01*
X148548228Y-110456790D01*
X148887162Y-110637954D01*
X149184240Y-110881760D01*
X149428046Y-111178838D01*
X149609210Y-111517772D01*
X149720771Y-111885537D01*
X149758440Y-112268000D01*
X149720771Y-112650463D01*
X149609210Y-113018228D01*
X149428046Y-113357162D01*
X149184240Y-113654240D01*
X148887162Y-113898046D01*
X148548228Y-114079210D01*
X148180463Y-114190771D01*
X147893847Y-114219000D01*
X143502153Y-114219000D01*
X143215537Y-114190771D01*
X142847772Y-114079210D01*
X142508838Y-113898046D01*
X142211760Y-113654240D01*
X141967954Y-113357162D01*
X141786790Y-113018228D01*
X141675229Y-112650463D01*
X141637560Y-112268000D01*
X141675229Y-111885537D01*
X141786790Y-111517772D01*
X141967954Y-111178838D01*
X142211760Y-110881760D01*
X142508838Y-110637954D01*
X142847772Y-110456790D01*
X143215537Y-110345229D01*
X143502153Y-110317000D01*
X147893847Y-110317000D01*
X148180463Y-110345229D01*
G37*
G36*
X115142145Y-111856897D02*
G01*
X115315216Y-111928585D01*
X115315217Y-111928586D01*
X115470977Y-112032661D01*
X115603440Y-112165124D01*
X115603441Y-112165126D01*
X115707516Y-112320885D01*
X115779204Y-112493956D01*
X115815750Y-112677684D01*
X115815750Y-112865018D01*
X115779204Y-113048746D01*
X115707516Y-113221817D01*
X115707515Y-113221818D01*
X115603440Y-113377578D01*
X115470977Y-113510041D01*
X115392568Y-113562432D01*
X115315216Y-113614117D01*
X115142145Y-113685805D01*
X114958417Y-113722351D01*
X114771083Y-113722351D01*
X114587355Y-113685805D01*
X114414284Y-113614117D01*
X114336932Y-113562432D01*
X114258523Y-113510041D01*
X114126060Y-113377578D01*
X114021985Y-113221818D01*
X114021984Y-113221817D01*
X113950296Y-113048746D01*
X113913750Y-112865018D01*
X113913750Y-112677684D01*
X113950296Y-112493956D01*
X114021984Y-112320885D01*
X114126059Y-112165126D01*
X114126060Y-112165124D01*
X114258523Y-112032661D01*
X114414283Y-111928586D01*
X114414284Y-111928585D01*
X114587355Y-111856897D01*
X114771083Y-111820351D01*
X114958417Y-111820351D01*
X115142145Y-111856897D01*
G37*
G36*
X208980217Y-108030808D02*
G01*
X209011489Y-108040294D01*
X209040308Y-108055698D01*
X209065570Y-108076430D01*
X209086302Y-108101692D01*
X209101706Y-108130511D01*
X209111192Y-108161783D01*
X209115000Y-108200448D01*
X209115000Y-110035552D01*
X209111192Y-110074217D01*
X209101706Y-110105489D01*
X209086302Y-110134308D01*
X209065570Y-110159570D01*
X209040308Y-110180302D01*
X209011489Y-110195706D01*
X208980217Y-110205192D01*
X208941552Y-110209000D01*
X205586448Y-110209000D01*
X205547783Y-110205192D01*
X205516511Y-110195706D01*
X205487692Y-110180302D01*
X205462430Y-110159570D01*
X205441698Y-110134308D01*
X205426294Y-110105489D01*
X205416808Y-110074217D01*
X205413000Y-110035552D01*
X205413000Y-108200448D01*
X205416808Y-108161783D01*
X205426294Y-108130511D01*
X205441698Y-108101692D01*
X205462430Y-108076430D01*
X205487692Y-108055698D01*
X205516511Y-108040294D01*
X205547783Y-108030808D01*
X205586448Y-108027000D01*
X208941552Y-108027000D01*
X208980217Y-108030808D01*
G37*
G36*
X121435395Y-107543546D02*
G01*
X121608466Y-107615234D01*
X121608467Y-107615235D01*
X121764227Y-107719310D01*
X121896690Y-107851773D01*
X121896691Y-107851775D01*
X122000766Y-108007534D01*
X122072454Y-108180605D01*
X122109000Y-108364333D01*
X122109000Y-108551667D01*
X122072454Y-108735395D01*
X122000766Y-108908466D01*
X122000765Y-108908467D01*
X121896690Y-109064227D01*
X121764227Y-109196690D01*
X121685818Y-109249081D01*
X121608466Y-109300766D01*
X121435395Y-109372454D01*
X121251667Y-109409000D01*
X121064333Y-109409000D01*
X120880605Y-109372454D01*
X120707534Y-109300766D01*
X120630182Y-109249081D01*
X120551773Y-109196690D01*
X120419310Y-109064227D01*
X120315235Y-108908467D01*
X120315234Y-108908466D01*
X120243546Y-108735395D01*
X120207000Y-108551667D01*
X120207000Y-108364333D01*
X120243546Y-108180605D01*
X120315234Y-108007534D01*
X120419309Y-107851775D01*
X120419310Y-107851773D01*
X120551773Y-107719310D01*
X120707533Y-107615235D01*
X120707534Y-107615234D01*
X120880605Y-107543546D01*
X121064333Y-107507000D01*
X121251667Y-107507000D01*
X121435395Y-107543546D01*
G37*
G36*
X208237871Y-102962786D02*
G01*
X208405245Y-103013558D01*
X208424905Y-103019522D01*
X208443530Y-103025172D01*
X208633055Y-103126475D01*
X208633058Y-103126477D01*
X208633059Y-103126478D01*
X208799186Y-103262814D01*
X208935522Y-103428941D01*
X208935525Y-103428945D01*
X209036828Y-103618470D01*
X209099214Y-103824129D01*
X209120278Y-104038000D01*
X209099214Y-104251871D01*
X209036828Y-104457530D01*
X208935525Y-104647055D01*
X208935523Y-104647058D01*
X208935522Y-104647059D01*
X208799186Y-104813186D01*
X208633059Y-104949522D01*
X208633055Y-104949525D01*
X208443530Y-105050828D01*
X208237871Y-105113214D01*
X208077591Y-105129000D01*
X206450409Y-105129000D01*
X206290129Y-105113214D01*
X206084470Y-105050828D01*
X205894945Y-104949525D01*
X205894941Y-104949522D01*
X205728814Y-104813186D01*
X205592478Y-104647059D01*
X205592477Y-104647058D01*
X205592475Y-104647055D01*
X205491172Y-104457530D01*
X205428786Y-104251871D01*
X205407722Y-104038000D01*
X205428786Y-103824129D01*
X205491172Y-103618470D01*
X205592475Y-103428945D01*
X205592478Y-103428941D01*
X205728814Y-103262814D01*
X205894941Y-103126478D01*
X205894942Y-103126477D01*
X205894945Y-103126475D01*
X206084470Y-103025172D01*
X206103096Y-103019522D01*
X206122755Y-103013558D01*
X206290129Y-102962786D01*
X206450409Y-102947000D01*
X208077591Y-102947000D01*
X208237871Y-102962786D01*
G37*
G36*
X116797871Y-101032786D02*
G01*
X117003530Y-101095172D01*
X117193055Y-101196475D01*
X117193058Y-101196477D01*
X117193059Y-101196478D01*
X117359186Y-101332814D01*
X117495522Y-101498941D01*
X117495525Y-101498945D01*
X117596828Y-101688470D01*
X117659214Y-101894129D01*
X117680278Y-102108000D01*
X117659214Y-102321871D01*
X117596828Y-102527530D01*
X117495525Y-102717055D01*
X117495523Y-102717058D01*
X117495522Y-102717059D01*
X117359186Y-102883186D01*
X117193059Y-103019522D01*
X117193055Y-103019525D01*
X117003530Y-103120828D01*
X117003527Y-103120829D01*
X116965245Y-103132442D01*
X116797871Y-103183214D01*
X116637591Y-103199000D01*
X115010409Y-103199000D01*
X114850129Y-103183214D01*
X114682755Y-103132442D01*
X114644473Y-103120829D01*
X114644470Y-103120828D01*
X114454945Y-103019525D01*
X114454941Y-103019522D01*
X114288814Y-102883186D01*
X114152478Y-102717059D01*
X114152477Y-102717058D01*
X114152475Y-102717055D01*
X114051172Y-102527530D01*
X113988786Y-102321871D01*
X113967722Y-102108000D01*
X113988786Y-101894129D01*
X114051172Y-101688470D01*
X114152475Y-101498945D01*
X114152478Y-101498941D01*
X114288814Y-101332814D01*
X114454941Y-101196478D01*
X114454942Y-101196477D01*
X114454945Y-101196475D01*
X114644470Y-101095172D01*
X114850129Y-101032786D01*
X115010409Y-101017000D01*
X116637591Y-101017000D01*
X116797871Y-101032786D01*
G37*
G36*
X202955000Y-102593000D02*
G01*
X202053000Y-102593000D01*
X202053000Y-101591000D01*
X202955000Y-101591000D01*
X202955000Y-102593000D01*
G37*
G36*
X204855000Y-102593000D02*
G01*
X203953000Y-102593000D01*
X203953000Y-101591000D01*
X204855000Y-101591000D01*
X204855000Y-102593000D01*
G37*
G36*
X201079000Y-102501000D02*
G01*
X199677000Y-102501000D01*
X199677000Y-100699000D01*
X201079000Y-100699000D01*
X201079000Y-102501000D01*
G37*
G36*
X197579000Y-102501000D02*
G01*
X196177000Y-102501000D01*
X196177000Y-100699000D01*
X197579000Y-100699000D01*
X197579000Y-102501000D01*
G37*
G36*
X203905000Y-100593000D02*
G01*
X203003000Y-100593000D01*
X203003000Y-99591000D01*
X203905000Y-99591000D01*
X203905000Y-100593000D01*
G37*
G36*
X208237871Y-97882786D02*
G01*
X208405245Y-97933558D01*
X208424905Y-97939522D01*
X208443530Y-97945172D01*
X208633055Y-98046475D01*
X208633058Y-98046477D01*
X208633059Y-98046478D01*
X208799186Y-98182814D01*
X208935522Y-98348941D01*
X208935525Y-98348945D01*
X209036828Y-98538470D01*
X209099214Y-98744129D01*
X209120278Y-98958000D01*
X209099214Y-99171871D01*
X209036828Y-99377530D01*
X208935525Y-99567055D01*
X208935523Y-99567058D01*
X208935522Y-99567059D01*
X208799186Y-99733186D01*
X208633059Y-99869522D01*
X208633055Y-99869525D01*
X208443530Y-99970828D01*
X208237871Y-100033214D01*
X208077591Y-100049000D01*
X206450409Y-100049000D01*
X206290129Y-100033214D01*
X206084470Y-99970828D01*
X205894945Y-99869525D01*
X205894941Y-99869522D01*
X205728814Y-99733186D01*
X205592478Y-99567059D01*
X205592477Y-99567058D01*
X205592475Y-99567055D01*
X205491172Y-99377530D01*
X205428786Y-99171871D01*
X205407722Y-98958000D01*
X205428786Y-98744129D01*
X205491172Y-98538470D01*
X205592475Y-98348945D01*
X205592478Y-98348941D01*
X205728814Y-98182814D01*
X205894941Y-98046478D01*
X205894942Y-98046477D01*
X205894945Y-98046475D01*
X206084470Y-97945172D01*
X206103096Y-97939522D01*
X206122755Y-97933558D01*
X206290129Y-97882786D01*
X206450409Y-97867000D01*
X208077591Y-97867000D01*
X208237871Y-97882786D01*
G37*
G36*
X116797871Y-95952786D02*
G01*
X117003530Y-96015172D01*
X117193055Y-96116475D01*
X117193058Y-96116477D01*
X117193059Y-96116478D01*
X117359186Y-96252814D01*
X117495522Y-96418941D01*
X117495525Y-96418945D01*
X117596828Y-96608470D01*
X117659214Y-96814129D01*
X117680278Y-97028000D01*
X117659214Y-97241871D01*
X117596828Y-97447530D01*
X117495525Y-97637055D01*
X117495523Y-97637058D01*
X117495522Y-97637059D01*
X117359186Y-97803186D01*
X117193059Y-97939522D01*
X117193055Y-97939525D01*
X117003530Y-98040828D01*
X117003527Y-98040829D01*
X116965245Y-98052442D01*
X116797871Y-98103214D01*
X116637591Y-98119000D01*
X115010409Y-98119000D01*
X114850129Y-98103214D01*
X114682755Y-98052442D01*
X114644473Y-98040829D01*
X114644470Y-98040828D01*
X114454945Y-97939525D01*
X114454941Y-97939522D01*
X114288814Y-97803186D01*
X114152478Y-97637059D01*
X114152477Y-97637058D01*
X114152475Y-97637055D01*
X114051172Y-97447530D01*
X113988786Y-97241871D01*
X113967722Y-97028000D01*
X113988786Y-96814129D01*
X114051172Y-96608470D01*
X114152475Y-96418945D01*
X114152478Y-96418941D01*
X114288814Y-96252814D01*
X114454941Y-96116478D01*
X114454942Y-96116477D01*
X114454945Y-96116475D01*
X114644470Y-96015172D01*
X114850129Y-95952786D01*
X115010409Y-95937000D01*
X116637591Y-95937000D01*
X116797871Y-95952786D01*
G37*
G36*
X140501000Y-96339000D02*
G01*
X138899000Y-96339000D01*
X138899000Y-92637000D01*
X140501000Y-92637000D01*
X140501000Y-96339000D01*
G37*
G36*
X208237871Y-92802786D02*
G01*
X208405245Y-92853558D01*
X208424905Y-92859522D01*
X208443530Y-92865172D01*
X208633055Y-92966475D01*
X208633058Y-92966477D01*
X208633059Y-92966478D01*
X208799186Y-93102814D01*
X208935522Y-93268941D01*
X208935525Y-93268945D01*
X209036828Y-93458470D01*
X209099214Y-93664129D01*
X209120278Y-93878000D01*
X209099214Y-94091871D01*
X209036828Y-94297530D01*
X208935525Y-94487055D01*
X208935523Y-94487058D01*
X208935522Y-94487059D01*
X208799186Y-94653186D01*
X208633059Y-94789522D01*
X208633055Y-94789525D01*
X208443530Y-94890828D01*
X208237871Y-94953214D01*
X208077591Y-94969000D01*
X206450409Y-94969000D01*
X206290129Y-94953214D01*
X206084470Y-94890828D01*
X205894945Y-94789525D01*
X205894941Y-94789522D01*
X205728814Y-94653186D01*
X205592478Y-94487059D01*
X205592477Y-94487058D01*
X205592475Y-94487055D01*
X205491172Y-94297530D01*
X205428786Y-94091871D01*
X205407722Y-93878000D01*
X205428786Y-93664129D01*
X205491172Y-93458470D01*
X205592475Y-93268945D01*
X205592478Y-93268941D01*
X205728814Y-93102814D01*
X205894941Y-92966478D01*
X205894942Y-92966477D01*
X205894945Y-92966475D01*
X206084470Y-92865172D01*
X206103096Y-92859522D01*
X206122755Y-92853558D01*
X206290129Y-92802786D01*
X206450409Y-92787000D01*
X208077591Y-92787000D01*
X208237871Y-92802786D01*
G37*
G36*
X204601000Y-94211000D02*
G01*
X203699000Y-94211000D01*
X203699000Y-93209000D01*
X204601000Y-93209000D01*
X204601000Y-94211000D01*
G37*
G36*
X202701000Y-94211000D02*
G01*
X201799000Y-94211000D01*
X201799000Y-93209000D01*
X202701000Y-93209000D01*
X202701000Y-94211000D01*
G37*
G36*
X197551000Y-93865000D02*
G01*
X196149000Y-93865000D01*
X196149000Y-92063000D01*
X197551000Y-92063000D01*
X197551000Y-93865000D01*
G37*
G36*
X201051000Y-93865000D02*
G01*
X199649000Y-93865000D01*
X199649000Y-92063000D01*
X201051000Y-92063000D01*
X201051000Y-93865000D01*
G37*
G36*
X116797871Y-90872786D02*
G01*
X117003530Y-90935172D01*
X117193055Y-91036475D01*
X117193058Y-91036477D01*
X117193059Y-91036478D01*
X117359186Y-91172814D01*
X117495522Y-91338941D01*
X117495525Y-91338945D01*
X117596828Y-91528470D01*
X117659214Y-91734129D01*
X117680278Y-91948000D01*
X117659214Y-92161871D01*
X117596828Y-92367530D01*
X117495525Y-92557055D01*
X117495523Y-92557058D01*
X117495522Y-92557059D01*
X117359186Y-92723186D01*
X117193059Y-92859522D01*
X117193055Y-92859525D01*
X117003530Y-92960828D01*
X117003527Y-92960829D01*
X116965245Y-92972442D01*
X116797871Y-93023214D01*
X116637591Y-93039000D01*
X115010409Y-93039000D01*
X114850129Y-93023214D01*
X114682755Y-92972442D01*
X114644473Y-92960829D01*
X114644470Y-92960828D01*
X114454945Y-92859525D01*
X114454941Y-92859522D01*
X114288814Y-92723186D01*
X114152478Y-92557059D01*
X114152477Y-92557058D01*
X114152475Y-92557055D01*
X114051172Y-92367530D01*
X113988786Y-92161871D01*
X113967722Y-91948000D01*
X113988786Y-91734129D01*
X114051172Y-91528470D01*
X114152475Y-91338945D01*
X114152478Y-91338941D01*
X114288814Y-91172814D01*
X114454941Y-91036478D01*
X114454942Y-91036477D01*
X114454945Y-91036475D01*
X114644470Y-90935172D01*
X114850129Y-90872786D01*
X115010409Y-90857000D01*
X116637591Y-90857000D01*
X116797871Y-90872786D01*
G37*
G36*
X203651000Y-92211000D02*
G01*
X202749000Y-92211000D01*
X202749000Y-91209000D01*
X203651000Y-91209000D01*
X203651000Y-92211000D01*
G37*
G36*
X140501000Y-91005000D02*
G01*
X138899000Y-91005000D01*
X138899000Y-87303000D01*
X140501000Y-87303000D01*
X140501000Y-91005000D01*
G37*
G36*
X208237871Y-87722786D02*
G01*
X208405245Y-87773558D01*
X208424905Y-87779522D01*
X208443530Y-87785172D01*
X208633055Y-87886475D01*
X208633058Y-87886477D01*
X208633059Y-87886478D01*
X208799186Y-88022814D01*
X208935522Y-88188941D01*
X208935525Y-88188945D01*
X209036828Y-88378470D01*
X209099214Y-88584129D01*
X209120278Y-88798000D01*
X209099214Y-89011871D01*
X209036828Y-89217530D01*
X208935525Y-89407055D01*
X208935523Y-89407058D01*
X208935522Y-89407059D01*
X208799186Y-89573186D01*
X208638569Y-89705000D01*
X208633055Y-89709525D01*
X208443530Y-89810828D01*
X208237871Y-89873214D01*
X208077591Y-89889000D01*
X206450409Y-89889000D01*
X206290129Y-89873214D01*
X206084470Y-89810828D01*
X205894945Y-89709525D01*
X205889431Y-89705000D01*
X205728814Y-89573186D01*
X205592478Y-89407059D01*
X205592477Y-89407058D01*
X205592475Y-89407055D01*
X205491172Y-89217530D01*
X205428786Y-89011871D01*
X205407722Y-88798000D01*
X205428786Y-88584129D01*
X205491172Y-88378470D01*
X205592475Y-88188945D01*
X205592478Y-88188941D01*
X205728814Y-88022814D01*
X205894941Y-87886478D01*
X205894942Y-87886477D01*
X205894945Y-87886475D01*
X206084470Y-87785172D01*
X206103096Y-87779522D01*
X206122755Y-87773558D01*
X206290129Y-87722786D01*
X206450409Y-87707000D01*
X208077591Y-87707000D01*
X208237871Y-87722786D01*
G37*
G36*
X116797871Y-85792786D02*
G01*
X117003530Y-85855172D01*
X117193055Y-85956475D01*
X117193058Y-85956477D01*
X117193059Y-85956478D01*
X117359186Y-86092814D01*
X117495522Y-86258941D01*
X117495525Y-86258945D01*
X117596828Y-86448470D01*
X117659214Y-86654129D01*
X117680278Y-86868000D01*
X117659214Y-87081871D01*
X117596828Y-87287530D01*
X117495525Y-87477055D01*
X117495523Y-87477058D01*
X117495522Y-87477059D01*
X117359186Y-87643186D01*
X117193059Y-87779522D01*
X117193055Y-87779525D01*
X117003530Y-87880828D01*
X117003527Y-87880829D01*
X116965245Y-87892442D01*
X116797871Y-87943214D01*
X116637591Y-87959000D01*
X115010409Y-87959000D01*
X114850129Y-87943214D01*
X114682755Y-87892442D01*
X114644473Y-87880829D01*
X114644470Y-87880828D01*
X114454945Y-87779525D01*
X114454941Y-87779522D01*
X114288814Y-87643186D01*
X114152478Y-87477059D01*
X114152477Y-87477058D01*
X114152475Y-87477055D01*
X114051172Y-87287530D01*
X113988786Y-87081871D01*
X113967722Y-86868000D01*
X113988786Y-86654129D01*
X114051172Y-86448470D01*
X114152475Y-86258945D01*
X114152478Y-86258941D01*
X114288814Y-86092814D01*
X114454941Y-85956478D01*
X114454942Y-85956477D01*
X114454945Y-85956475D01*
X114644470Y-85855172D01*
X114850129Y-85792786D01*
X115010409Y-85777000D01*
X116637591Y-85777000D01*
X116797871Y-85792786D01*
G37*
G36*
X202701000Y-85829000D02*
G01*
X201799000Y-85829000D01*
X201799000Y-84827000D01*
X202701000Y-84827000D01*
X202701000Y-85829000D01*
G37*
G36*
X204601000Y-85829000D02*
G01*
X203699000Y-85829000D01*
X203699000Y-84827000D01*
X204601000Y-84827000D01*
X204601000Y-85829000D01*
G37*
G36*
X140501000Y-85671000D02*
G01*
X138899000Y-85671000D01*
X138899000Y-81969000D01*
X140501000Y-81969000D01*
X140501000Y-85671000D01*
G37*
G36*
X201107000Y-85483000D02*
G01*
X199705000Y-85483000D01*
X199705000Y-83681000D01*
X201107000Y-83681000D01*
X201107000Y-85483000D01*
G37*
G36*
X197607000Y-85483000D02*
G01*
X196205000Y-85483000D01*
X196205000Y-83681000D01*
X197607000Y-83681000D01*
X197607000Y-85483000D01*
G37*
G36*
X208237871Y-82642786D02*
G01*
X208405245Y-82693558D01*
X208424905Y-82699522D01*
X208443530Y-82705172D01*
X208633055Y-82806475D01*
X208633058Y-82806477D01*
X208633059Y-82806478D01*
X208799186Y-82942814D01*
X208935522Y-83108941D01*
X208935525Y-83108945D01*
X209036828Y-83298470D01*
X209099214Y-83504129D01*
X209120278Y-83718000D01*
X209099214Y-83931871D01*
X209036828Y-84137530D01*
X208935525Y-84327055D01*
X208935523Y-84327058D01*
X208935522Y-84327059D01*
X208799186Y-84493186D01*
X208633059Y-84629522D01*
X208633055Y-84629525D01*
X208443530Y-84730828D01*
X208237871Y-84793214D01*
X208077591Y-84809000D01*
X206450409Y-84809000D01*
X206290129Y-84793214D01*
X206084470Y-84730828D01*
X205894945Y-84629525D01*
X205894941Y-84629522D01*
X205728814Y-84493186D01*
X205592478Y-84327059D01*
X205592477Y-84327058D01*
X205592475Y-84327055D01*
X205491172Y-84137530D01*
X205428786Y-83931871D01*
X205407722Y-83718000D01*
X205428786Y-83504129D01*
X205491172Y-83298470D01*
X205592475Y-83108945D01*
X205592478Y-83108941D01*
X205728814Y-82942814D01*
X205894941Y-82806478D01*
X205894942Y-82806477D01*
X205894945Y-82806475D01*
X206084470Y-82705172D01*
X206103096Y-82699522D01*
X206122755Y-82693558D01*
X206290129Y-82642786D01*
X206450409Y-82627000D01*
X208077591Y-82627000D01*
X208237871Y-82642786D01*
G37*
G36*
X203651000Y-83829000D02*
G01*
X202749000Y-83829000D01*
X202749000Y-82827000D01*
X203651000Y-82827000D01*
X203651000Y-83829000D01*
G37*
G36*
X116797871Y-80712786D02*
G01*
X117003530Y-80775172D01*
X117193055Y-80876475D01*
X117193058Y-80876477D01*
X117193059Y-80876478D01*
X117359186Y-81012814D01*
X117495522Y-81178941D01*
X117495525Y-81178945D01*
X117596828Y-81368470D01*
X117659214Y-81574129D01*
X117680278Y-81788000D01*
X117659214Y-82001871D01*
X117596828Y-82207530D01*
X117495525Y-82397055D01*
X117495523Y-82397058D01*
X117495522Y-82397059D01*
X117359186Y-82563186D01*
X117193059Y-82699522D01*
X117193055Y-82699525D01*
X117003530Y-82800828D01*
X117003527Y-82800829D01*
X116965245Y-82812442D01*
X116797871Y-82863214D01*
X116637591Y-82879000D01*
X115010409Y-82879000D01*
X114850129Y-82863214D01*
X114682755Y-82812442D01*
X114644473Y-82800829D01*
X114644470Y-82800828D01*
X114454945Y-82699525D01*
X114454941Y-82699522D01*
X114288814Y-82563186D01*
X114152478Y-82397059D01*
X114152477Y-82397058D01*
X114152475Y-82397055D01*
X114051172Y-82207530D01*
X113988786Y-82001871D01*
X113967722Y-81788000D01*
X113988786Y-81574129D01*
X114051172Y-81368470D01*
X114152475Y-81178945D01*
X114152478Y-81178941D01*
X114288814Y-81012814D01*
X114454941Y-80876478D01*
X114454942Y-80876477D01*
X114454945Y-80876475D01*
X114644470Y-80775172D01*
X114850129Y-80712786D01*
X115010409Y-80697000D01*
X116637591Y-80697000D01*
X116797871Y-80712786D01*
G37*
G36*
X140501000Y-80307000D02*
G01*
X138899000Y-80307000D01*
X138899000Y-76605000D01*
X140501000Y-76605000D01*
X140501000Y-80307000D01*
G37*
G36*
X208237871Y-77562786D02*
G01*
X208443530Y-77625172D01*
X208633055Y-77726475D01*
X208633058Y-77726477D01*
X208633059Y-77726478D01*
X208799186Y-77862814D01*
X208935522Y-78028941D01*
X208935525Y-78028945D01*
X209036828Y-78218470D01*
X209099214Y-78424129D01*
X209120278Y-78638000D01*
X209099214Y-78851871D01*
X209036828Y-79057530D01*
X208935525Y-79247055D01*
X208935523Y-79247058D01*
X208935522Y-79247059D01*
X208799186Y-79413186D01*
X208633059Y-79549522D01*
X208633055Y-79549525D01*
X208443530Y-79650828D01*
X208237871Y-79713214D01*
X208077591Y-79729000D01*
X206450409Y-79729000D01*
X206290129Y-79713214D01*
X206084470Y-79650828D01*
X205894945Y-79549525D01*
X205894941Y-79549522D01*
X205728814Y-79413186D01*
X205592478Y-79247059D01*
X205592477Y-79247058D01*
X205592475Y-79247055D01*
X205491172Y-79057530D01*
X205428786Y-78851871D01*
X205407722Y-78638000D01*
X205428786Y-78424129D01*
X205491172Y-78218470D01*
X205592475Y-78028945D01*
X205592478Y-78028941D01*
X205728814Y-77862814D01*
X205894941Y-77726478D01*
X205894942Y-77726477D01*
X205894945Y-77726475D01*
X206084470Y-77625172D01*
X206290129Y-77562786D01*
X206450409Y-77547000D01*
X208077591Y-77547000D01*
X208237871Y-77562786D01*
G37*
G36*
X197297000Y-77863000D02*
G01*
X195895000Y-77863000D01*
X195895000Y-76061000D01*
X197297000Y-76061000D01*
X197297000Y-77863000D01*
G37*
G36*
X200797000Y-77863000D02*
G01*
X199395000Y-77863000D01*
X199395000Y-76061000D01*
X200797000Y-76061000D01*
X200797000Y-77863000D01*
G37*
G36*
X117540217Y-75620808D02*
G01*
X117571489Y-75630294D01*
X117600308Y-75645698D01*
X117625570Y-75666430D01*
X117646302Y-75691692D01*
X117661706Y-75720511D01*
X117671192Y-75751783D01*
X117675000Y-75790448D01*
X117675000Y-77625552D01*
X117671192Y-77664217D01*
X117661706Y-77695489D01*
X117646302Y-77724308D01*
X117625570Y-77749570D01*
X117600308Y-77770302D01*
X117571489Y-77785706D01*
X117540217Y-77795192D01*
X117501552Y-77799000D01*
X114146448Y-77799000D01*
X114107783Y-77795192D01*
X114076511Y-77785706D01*
X114047692Y-77770302D01*
X114022430Y-77749570D01*
X114001698Y-77724308D01*
X113986294Y-77695489D01*
X113976808Y-77664217D01*
X113973000Y-77625552D01*
X113973000Y-75790448D01*
X113976808Y-75751783D01*
X113986294Y-75720511D01*
X114001698Y-75691692D01*
X114022430Y-75666430D01*
X114047692Y-75645698D01*
X114076511Y-75630294D01*
X114107783Y-75620808D01*
X114146448Y-75617000D01*
X117501552Y-75617000D01*
X117540217Y-75620808D01*
G37*
G36*
X204601000Y-77685000D02*
G01*
X203699000Y-77685000D01*
X203699000Y-76683000D01*
X204601000Y-76683000D01*
X204601000Y-77685000D01*
G37*
G36*
X202701000Y-77685000D02*
G01*
X201799000Y-77685000D01*
X201799000Y-76683000D01*
X202701000Y-76683000D01*
X202701000Y-77685000D01*
G37*
G36*
X203651000Y-75685000D02*
G01*
X202749000Y-75685000D01*
X202749000Y-74683000D01*
X203651000Y-74683000D01*
X203651000Y-75685000D01*
G37*
G36*
X208237871Y-72482786D02*
G01*
X208443530Y-72545172D01*
X208633055Y-72646475D01*
X208633058Y-72646477D01*
X208633059Y-72646478D01*
X208799186Y-72782814D01*
X208935522Y-72948941D01*
X208935525Y-72948945D01*
X209036828Y-73138470D01*
X209099214Y-73344129D01*
X209120278Y-73558000D01*
X209099214Y-73771871D01*
X209036828Y-73977530D01*
X208935525Y-74167055D01*
X208935523Y-74167058D01*
X208935522Y-74167059D01*
X208799186Y-74333186D01*
X208633059Y-74469522D01*
X208633055Y-74469525D01*
X208443530Y-74570828D01*
X208237871Y-74633214D01*
X208077591Y-74649000D01*
X206450409Y-74649000D01*
X206290129Y-74633214D01*
X206084470Y-74570828D01*
X205894945Y-74469525D01*
X205894941Y-74469522D01*
X205728814Y-74333186D01*
X205592478Y-74167059D01*
X205592477Y-74167058D01*
X205592475Y-74167055D01*
X205491172Y-73977530D01*
X205428786Y-73771871D01*
X205407722Y-73558000D01*
X205428786Y-73344129D01*
X205491172Y-73138470D01*
X205592475Y-72948945D01*
X205592478Y-72948941D01*
X205728814Y-72782814D01*
X205894941Y-72646478D01*
X205894942Y-72646477D01*
X205894945Y-72646475D01*
X206084470Y-72545172D01*
X206290129Y-72482786D01*
X206450409Y-72467000D01*
X208077591Y-72467000D01*
X208237871Y-72482786D01*
G37*
G36*
X202166098Y-67397033D02*
G01*
X202630350Y-67589332D01*
X202630352Y-67589333D01*
X203048168Y-67868509D01*
X203403491Y-68223832D01*
X203682667Y-68641648D01*
X203682668Y-68641650D01*
X203874967Y-69105902D01*
X203973000Y-69598747D01*
X203973000Y-70101253D01*
X203874967Y-70594098D01*
X203682668Y-71058350D01*
X203682667Y-71058352D01*
X203403491Y-71476168D01*
X203048168Y-71831491D01*
X202630352Y-72110667D01*
X202630351Y-72110668D01*
X202630350Y-72110668D01*
X202166098Y-72302967D01*
X201673253Y-72401000D01*
X201170747Y-72401000D01*
X200677902Y-72302967D01*
X200213650Y-72110668D01*
X200213649Y-72110668D01*
X200213648Y-72110667D01*
X199795832Y-71831491D01*
X199440509Y-71476168D01*
X199161333Y-71058352D01*
X199161332Y-71058350D01*
X198969033Y-70594098D01*
X198871000Y-70101253D01*
X198871000Y-69598747D01*
X198969033Y-69105902D01*
X199161332Y-68641650D01*
X199161333Y-68641648D01*
X199440509Y-68223832D01*
X199795832Y-67868509D01*
X200213648Y-67589333D01*
X200213650Y-67589332D01*
X200677902Y-67397033D01*
X201170747Y-67299000D01*
X201673253Y-67299000D01*
X202166098Y-67397033D01*
G37*
G36*
X126474098Y-67397033D02*
G01*
X126938350Y-67589332D01*
X126938352Y-67589333D01*
X127356168Y-67868509D01*
X127711491Y-68223832D01*
X127990667Y-68641648D01*
X127990668Y-68641650D01*
X128182967Y-69105902D01*
X128281000Y-69598747D01*
X128281000Y-70101253D01*
X128182967Y-70594098D01*
X127990668Y-71058350D01*
X127990667Y-71058352D01*
X127711491Y-71476168D01*
X127356168Y-71831491D01*
X126938352Y-72110667D01*
X126938351Y-72110668D01*
X126938350Y-72110668D01*
X126474098Y-72302967D01*
X125981253Y-72401000D01*
X125478747Y-72401000D01*
X124985902Y-72302967D01*
X124521650Y-72110668D01*
X124521649Y-72110668D01*
X124521648Y-72110667D01*
X124103832Y-71831491D01*
X123748509Y-71476168D01*
X123469333Y-71058352D01*
X123469332Y-71058350D01*
X123277033Y-70594098D01*
X123179000Y-70101253D01*
X123179000Y-69598747D01*
X123277033Y-69105902D01*
X123469332Y-68641650D01*
X123469333Y-68641648D01*
X123748509Y-68223832D01*
X124103832Y-67868509D01*
X124521648Y-67589333D01*
X124521650Y-67589332D01*
X124985902Y-67397033D01*
X125478747Y-67299000D01*
X125981253Y-67299000D01*
X126474098Y-67397033D01*
G37*
G36*
X148965256Y-68749298D02*
G01*
X149071579Y-68770447D01*
X149372042Y-68894903D01*
X149642451Y-69075585D01*
X149872415Y-69305549D01*
X150053097Y-69575958D01*
X150174911Y-69870042D01*
X150177553Y-69876422D01*
X150241000Y-70195389D01*
X150241000Y-70520611D01*
X150226382Y-70594098D01*
X150177553Y-70839579D01*
X150053097Y-71140042D01*
X149872415Y-71410451D01*
X149642451Y-71640415D01*
X149372042Y-71821097D01*
X149071579Y-71945553D01*
X148965256Y-71966702D01*
X148752611Y-72009000D01*
X148427389Y-72009000D01*
X148214744Y-71966702D01*
X148108421Y-71945553D01*
X147807958Y-71821097D01*
X147537549Y-71640415D01*
X147307585Y-71410451D01*
X147126903Y-71140042D01*
X147002447Y-70839579D01*
X146953618Y-70594098D01*
X146939000Y-70520611D01*
X146939000Y-70195389D01*
X147002447Y-69876422D01*
X147005090Y-69870042D01*
X147126903Y-69575958D01*
X147307585Y-69305549D01*
X147537549Y-69075585D01*
X147807958Y-68894903D01*
X148108421Y-68770447D01*
X148214744Y-68749298D01*
X148427389Y-68707000D01*
X148752611Y-68707000D01*
X148965256Y-68749298D01*
G37*
G36*
X194685256Y-67479298D02*
G01*
X194791579Y-67500447D01*
X195092042Y-67624903D01*
X195362451Y-67805585D01*
X195592415Y-68035549D01*
X195773097Y-68305958D01*
X195773098Y-68305960D01*
X195897553Y-68606422D01*
X195961000Y-68925389D01*
X195961000Y-69250611D01*
X195918702Y-69463256D01*
X195897553Y-69569579D01*
X195773097Y-69870042D01*
X195592415Y-70140451D01*
X195362451Y-70370415D01*
X195092042Y-70551097D01*
X194791579Y-70675553D01*
X194685256Y-70696702D01*
X194472611Y-70739000D01*
X194147389Y-70739000D01*
X193934744Y-70696702D01*
X193828421Y-70675553D01*
X193527958Y-70551097D01*
X193257549Y-70370415D01*
X193027585Y-70140451D01*
X192846903Y-69870042D01*
X192722447Y-69569579D01*
X192701298Y-69463256D01*
X192659000Y-69250611D01*
X192659000Y-68925389D01*
X192722447Y-68606422D01*
X192846902Y-68305960D01*
X192846903Y-68305958D01*
X193027585Y-68035549D01*
X193257549Y-67805585D01*
X193527958Y-67624903D01*
X193828421Y-67500447D01*
X193934744Y-67479298D01*
X194147389Y-67437000D01*
X194472611Y-67437000D01*
X194685256Y-67479298D01*
G37*
M02*
