G04 #@! TF.GenerationSoftware,KiCad,Pcbnew,5.1.6-c6e7f7d~87~ubuntu18.04.1*
G04 #@! TF.CreationDate,2020-08-27T22:21:22+02:00*
G04 #@! TF.ProjectId,PeakHoldPWMDriver,5065616b-486f-46c6-9450-574d44726976,rev?*
G04 #@! TF.SameCoordinates,Original*
G04 #@! TF.FileFunction,Paste,Top*
G04 #@! TF.FilePolarity,Positive*
%FSLAX46Y46*%
G04 Gerber Fmt 4.6, Leading zero omitted, Abs format (unit mm)*
G04 Created by KiCad (PCBNEW 5.1.6-c6e7f7d~87~ubuntu18.04.1) date 2020-08-27 22:21:22*
%MOMM*%
%LPD*%
G01*
G04 APERTURE LIST*
%ADD10R,0.900000X0.800000*%
%ADD11R,2.500000X3.300000*%
%ADD12R,1.800000X2.500000*%
%ADD13R,2.000000X1.500000*%
%ADD14R,2.000000X3.800000*%
%ADD15R,1.300000X1.700000*%
%ADD16R,0.650000X1.560000*%
%ADD17R,1.300000X1.300000*%
%ADD18R,1.300000X2.000000*%
G04 APERTURE END LIST*
G36*
G01*
X114124000Y-70843000D02*
X114124000Y-71143000D01*
G75*
G02*
X113974000Y-71293000I-150000J0D01*
G01*
X112524000Y-71293000D01*
G75*
G02*
X112374000Y-71143000I0J150000D01*
G01*
X112374000Y-70843000D01*
G75*
G02*
X112524000Y-70693000I150000J0D01*
G01*
X113974000Y-70693000D01*
G75*
G02*
X114124000Y-70843000I0J-150000D01*
G01*
G37*
G36*
G01*
X114124000Y-69573000D02*
X114124000Y-69873000D01*
G75*
G02*
X113974000Y-70023000I-150000J0D01*
G01*
X112524000Y-70023000D01*
G75*
G02*
X112374000Y-69873000I0J150000D01*
G01*
X112374000Y-69573000D01*
G75*
G02*
X112524000Y-69423000I150000J0D01*
G01*
X113974000Y-69423000D01*
G75*
G02*
X114124000Y-69573000I0J-150000D01*
G01*
G37*
G36*
G01*
X114124000Y-68303000D02*
X114124000Y-68603000D01*
G75*
G02*
X113974000Y-68753000I-150000J0D01*
G01*
X112524000Y-68753000D01*
G75*
G02*
X112374000Y-68603000I0J150000D01*
G01*
X112374000Y-68303000D01*
G75*
G02*
X112524000Y-68153000I150000J0D01*
G01*
X113974000Y-68153000D01*
G75*
G02*
X114124000Y-68303000I0J-150000D01*
G01*
G37*
G36*
G01*
X114124000Y-67033000D02*
X114124000Y-67333000D01*
G75*
G02*
X113974000Y-67483000I-150000J0D01*
G01*
X112524000Y-67483000D01*
G75*
G02*
X112374000Y-67333000I0J150000D01*
G01*
X112374000Y-67033000D01*
G75*
G02*
X112524000Y-66883000I150000J0D01*
G01*
X113974000Y-66883000D01*
G75*
G02*
X114124000Y-67033000I0J-150000D01*
G01*
G37*
G36*
G01*
X119274000Y-67033000D02*
X119274000Y-67333000D01*
G75*
G02*
X119124000Y-67483000I-150000J0D01*
G01*
X117674000Y-67483000D01*
G75*
G02*
X117524000Y-67333000I0J150000D01*
G01*
X117524000Y-67033000D01*
G75*
G02*
X117674000Y-66883000I150000J0D01*
G01*
X119124000Y-66883000D01*
G75*
G02*
X119274000Y-67033000I0J-150000D01*
G01*
G37*
G36*
G01*
X119274000Y-68303000D02*
X119274000Y-68603000D01*
G75*
G02*
X119124000Y-68753000I-150000J0D01*
G01*
X117674000Y-68753000D01*
G75*
G02*
X117524000Y-68603000I0J150000D01*
G01*
X117524000Y-68303000D01*
G75*
G02*
X117674000Y-68153000I150000J0D01*
G01*
X119124000Y-68153000D01*
G75*
G02*
X119274000Y-68303000I0J-150000D01*
G01*
G37*
G36*
G01*
X119274000Y-69573000D02*
X119274000Y-69873000D01*
G75*
G02*
X119124000Y-70023000I-150000J0D01*
G01*
X117674000Y-70023000D01*
G75*
G02*
X117524000Y-69873000I0J150000D01*
G01*
X117524000Y-69573000D01*
G75*
G02*
X117674000Y-69423000I150000J0D01*
G01*
X119124000Y-69423000D01*
G75*
G02*
X119274000Y-69573000I0J-150000D01*
G01*
G37*
G36*
G01*
X119274000Y-70843000D02*
X119274000Y-71143000D01*
G75*
G02*
X119124000Y-71293000I-150000J0D01*
G01*
X117674000Y-71293000D01*
G75*
G02*
X117524000Y-71143000I0J150000D01*
G01*
X117524000Y-70843000D01*
G75*
G02*
X117674000Y-70693000I150000J0D01*
G01*
X119124000Y-70693000D01*
G75*
G02*
X119274000Y-70843000I0J-150000D01*
G01*
G37*
D10*
X127746000Y-89408000D03*
X125746000Y-90358000D03*
X125746000Y-88458000D03*
G36*
G01*
X119538000Y-73149750D02*
X119538000Y-73662250D01*
G75*
G02*
X119319250Y-73881000I-218750J0D01*
G01*
X118881750Y-73881000D01*
G75*
G02*
X118663000Y-73662250I0J218750D01*
G01*
X118663000Y-73149750D01*
G75*
G02*
X118881750Y-72931000I218750J0D01*
G01*
X119319250Y-72931000D01*
G75*
G02*
X119538000Y-73149750I0J-218750D01*
G01*
G37*
G36*
G01*
X121113000Y-73149750D02*
X121113000Y-73662250D01*
G75*
G02*
X120894250Y-73881000I-218750J0D01*
G01*
X120456750Y-73881000D01*
G75*
G02*
X120238000Y-73662250I0J218750D01*
G01*
X120238000Y-73149750D01*
G75*
G02*
X120456750Y-72931000I218750J0D01*
G01*
X120894250Y-72931000D01*
G75*
G02*
X121113000Y-73149750I0J-218750D01*
G01*
G37*
G36*
G01*
X123540000Y-76202250D02*
X123540000Y-75689750D01*
G75*
G02*
X123758750Y-75471000I218750J0D01*
G01*
X124196250Y-75471000D01*
G75*
G02*
X124415000Y-75689750I0J-218750D01*
G01*
X124415000Y-76202250D01*
G75*
G02*
X124196250Y-76421000I-218750J0D01*
G01*
X123758750Y-76421000D01*
G75*
G02*
X123540000Y-76202250I0J218750D01*
G01*
G37*
G36*
G01*
X121965000Y-76202250D02*
X121965000Y-75689750D01*
G75*
G02*
X122183750Y-75471000I218750J0D01*
G01*
X122621250Y-75471000D01*
G75*
G02*
X122840000Y-75689750I0J-218750D01*
G01*
X122840000Y-76202250D01*
G75*
G02*
X122621250Y-76421000I-218750J0D01*
G01*
X122183750Y-76421000D01*
G75*
G02*
X121965000Y-76202250I0J218750D01*
G01*
G37*
G36*
G01*
X122840000Y-73149750D02*
X122840000Y-73662250D01*
G75*
G02*
X122621250Y-73881000I-218750J0D01*
G01*
X122183750Y-73881000D01*
G75*
G02*
X121965000Y-73662250I0J218750D01*
G01*
X121965000Y-73149750D01*
G75*
G02*
X122183750Y-72931000I218750J0D01*
G01*
X122621250Y-72931000D01*
G75*
G02*
X122840000Y-73149750I0J-218750D01*
G01*
G37*
G36*
G01*
X124415000Y-73149750D02*
X124415000Y-73662250D01*
G75*
G02*
X124196250Y-73881000I-218750J0D01*
G01*
X123758750Y-73881000D01*
G75*
G02*
X123540000Y-73662250I0J218750D01*
G01*
X123540000Y-73149750D01*
G75*
G02*
X123758750Y-72931000I218750J0D01*
G01*
X124196250Y-72931000D01*
G75*
G02*
X124415000Y-73149750I0J-218750D01*
G01*
G37*
G36*
G01*
X119538000Y-75689750D02*
X119538000Y-76202250D01*
G75*
G02*
X119319250Y-76421000I-218750J0D01*
G01*
X118881750Y-76421000D01*
G75*
G02*
X118663000Y-76202250I0J218750D01*
G01*
X118663000Y-75689750D01*
G75*
G02*
X118881750Y-75471000I218750J0D01*
G01*
X119319250Y-75471000D01*
G75*
G02*
X119538000Y-75689750I0J-218750D01*
G01*
G37*
G36*
G01*
X121113000Y-75689750D02*
X121113000Y-76202250D01*
G75*
G02*
X120894250Y-76421000I-218750J0D01*
G01*
X120456750Y-76421000D01*
G75*
G02*
X120238000Y-76202250I0J218750D01*
G01*
X120238000Y-75689750D01*
G75*
G02*
X120456750Y-75471000I218750J0D01*
G01*
X120894250Y-75471000D01*
G75*
G02*
X121113000Y-75689750I0J-218750D01*
G01*
G37*
G36*
G01*
X183292000Y-91964500D02*
X183292000Y-92439500D01*
G75*
G02*
X183054500Y-92677000I-237500J0D01*
G01*
X182479500Y-92677000D01*
G75*
G02*
X182242000Y-92439500I0J237500D01*
G01*
X182242000Y-91964500D01*
G75*
G02*
X182479500Y-91727000I237500J0D01*
G01*
X183054500Y-91727000D01*
G75*
G02*
X183292000Y-91964500I0J-237500D01*
G01*
G37*
G36*
G01*
X185042000Y-91964500D02*
X185042000Y-92439500D01*
G75*
G02*
X184804500Y-92677000I-237500J0D01*
G01*
X184229500Y-92677000D01*
G75*
G02*
X183992000Y-92439500I0J237500D01*
G01*
X183992000Y-91964500D01*
G75*
G02*
X184229500Y-91727000I237500J0D01*
G01*
X184804500Y-91727000D01*
G75*
G02*
X185042000Y-91964500I0J-237500D01*
G01*
G37*
D11*
X180496000Y-108966000D03*
X187296000Y-108966000D03*
D10*
X179864000Y-103632000D03*
X181864000Y-102682000D03*
X181864000Y-104582000D03*
X185642000Y-75626000D03*
X185642000Y-73726000D03*
X183642000Y-74676000D03*
X183674000Y-85598000D03*
X185674000Y-84648000D03*
X185674000Y-86548000D03*
X179832000Y-74676000D03*
X181832000Y-73726000D03*
X181832000Y-75626000D03*
X179864000Y-85598000D03*
X181864000Y-84648000D03*
X181864000Y-86548000D03*
X183658000Y-103632000D03*
X185658000Y-102682000D03*
X185658000Y-104582000D03*
X183674000Y-114300000D03*
X185674000Y-113350000D03*
X185674000Y-115250000D03*
X179864000Y-114300000D03*
X181864000Y-113350000D03*
X181864000Y-115250000D03*
G36*
G01*
X160003000Y-80755500D02*
X160003000Y-80280500D01*
G75*
G02*
X160240500Y-80043000I237500J0D01*
G01*
X160815500Y-80043000D01*
G75*
G02*
X161053000Y-80280500I0J-237500D01*
G01*
X161053000Y-80755500D01*
G75*
G02*
X160815500Y-80993000I-237500J0D01*
G01*
X160240500Y-80993000D01*
G75*
G02*
X160003000Y-80755500I0J237500D01*
G01*
G37*
G36*
G01*
X158253000Y-80755500D02*
X158253000Y-80280500D01*
G75*
G02*
X158490500Y-80043000I237500J0D01*
G01*
X159065500Y-80043000D01*
G75*
G02*
X159303000Y-80280500I0J-237500D01*
G01*
X159303000Y-80755500D01*
G75*
G02*
X159065500Y-80993000I-237500J0D01*
G01*
X158490500Y-80993000D01*
G75*
G02*
X158253000Y-80755500I0J237500D01*
G01*
G37*
G36*
G01*
X175215000Y-99297500D02*
X175215000Y-98822500D01*
G75*
G02*
X175452500Y-98585000I237500J0D01*
G01*
X176027500Y-98585000D01*
G75*
G02*
X176265000Y-98822500I0J-237500D01*
G01*
X176265000Y-99297500D01*
G75*
G02*
X176027500Y-99535000I-237500J0D01*
G01*
X175452500Y-99535000D01*
G75*
G02*
X175215000Y-99297500I0J237500D01*
G01*
G37*
G36*
G01*
X173465000Y-99297500D02*
X173465000Y-98822500D01*
G75*
G02*
X173702500Y-98585000I237500J0D01*
G01*
X174277500Y-98585000D01*
G75*
G02*
X174515000Y-98822500I0J-237500D01*
G01*
X174515000Y-99297500D01*
G75*
G02*
X174277500Y-99535000I-237500J0D01*
G01*
X173702500Y-99535000D01*
G75*
G02*
X173465000Y-99297500I0J237500D01*
G01*
G37*
G36*
G01*
X164942000Y-80755500D02*
X164942000Y-80280500D01*
G75*
G02*
X165179500Y-80043000I237500J0D01*
G01*
X165754500Y-80043000D01*
G75*
G02*
X165992000Y-80280500I0J-237500D01*
G01*
X165992000Y-80755500D01*
G75*
G02*
X165754500Y-80993000I-237500J0D01*
G01*
X165179500Y-80993000D01*
G75*
G02*
X164942000Y-80755500I0J237500D01*
G01*
G37*
G36*
G01*
X163192000Y-80755500D02*
X163192000Y-80280500D01*
G75*
G02*
X163429500Y-80043000I237500J0D01*
G01*
X164004500Y-80043000D01*
G75*
G02*
X164242000Y-80280500I0J-237500D01*
G01*
X164242000Y-80755500D01*
G75*
G02*
X164004500Y-80993000I-237500J0D01*
G01*
X163429500Y-80993000D01*
G75*
G02*
X163192000Y-80755500I0J237500D01*
G01*
G37*
G36*
G01*
X169260000Y-99297500D02*
X169260000Y-98822500D01*
G75*
G02*
X169497500Y-98585000I237500J0D01*
G01*
X170072500Y-98585000D01*
G75*
G02*
X170310000Y-98822500I0J-237500D01*
G01*
X170310000Y-99297500D01*
G75*
G02*
X170072500Y-99535000I-237500J0D01*
G01*
X169497500Y-99535000D01*
G75*
G02*
X169260000Y-99297500I0J237500D01*
G01*
G37*
G36*
G01*
X167510000Y-99297500D02*
X167510000Y-98822500D01*
G75*
G02*
X167747500Y-98585000I237500J0D01*
G01*
X168322500Y-98585000D01*
G75*
G02*
X168560000Y-98822500I0J-237500D01*
G01*
X168560000Y-99297500D01*
G75*
G02*
X168322500Y-99535000I-237500J0D01*
G01*
X167747500Y-99535000D01*
G75*
G02*
X167510000Y-99297500I0J237500D01*
G01*
G37*
X138160000Y-88392000D03*
X136160000Y-89342000D03*
X136160000Y-87442000D03*
X138160000Y-78740000D03*
X136160000Y-79690000D03*
X136160000Y-77790000D03*
X138160000Y-83566000D03*
X136160000Y-84516000D03*
X136160000Y-82616000D03*
X138160000Y-93218000D03*
X136160000Y-94168000D03*
X136160000Y-92268000D03*
D11*
X180496000Y-98298000D03*
X187296000Y-98298000D03*
G36*
G01*
X183292000Y-90186500D02*
X183292000Y-90661500D01*
G75*
G02*
X183054500Y-90899000I-237500J0D01*
G01*
X182479500Y-90899000D01*
G75*
G02*
X182242000Y-90661500I0J237500D01*
G01*
X182242000Y-90186500D01*
G75*
G02*
X182479500Y-89949000I237500J0D01*
G01*
X183054500Y-89949000D01*
G75*
G02*
X183292000Y-90186500I0J-237500D01*
G01*
G37*
G36*
G01*
X185042000Y-90186500D02*
X185042000Y-90661500D01*
G75*
G02*
X184804500Y-90899000I-237500J0D01*
G01*
X184229500Y-90899000D01*
G75*
G02*
X183992000Y-90661500I0J237500D01*
G01*
X183992000Y-90186500D01*
G75*
G02*
X184229500Y-89949000I237500J0D01*
G01*
X184804500Y-89949000D01*
G75*
G02*
X185042000Y-90186500I0J-237500D01*
G01*
G37*
G36*
G01*
X192433001Y-93025000D02*
X189582999Y-93025000D01*
G75*
G02*
X189333000Y-92775001I0J249999D01*
G01*
X189333000Y-91749999D01*
G75*
G02*
X189582999Y-91500000I249999J0D01*
G01*
X192433001Y-91500000D01*
G75*
G02*
X192683000Y-91749999I0J-249999D01*
G01*
X192683000Y-92775001D01*
G75*
G02*
X192433001Y-93025000I-249999J0D01*
G01*
G37*
G36*
G01*
X192433001Y-99000000D02*
X189582999Y-99000000D01*
G75*
G02*
X189333000Y-98750001I0J249999D01*
G01*
X189333000Y-97724999D01*
G75*
G02*
X189582999Y-97475000I249999J0D01*
G01*
X192433001Y-97475000D01*
G75*
G02*
X192683000Y-97724999I0J-249999D01*
G01*
X192683000Y-98750001D01*
G75*
G02*
X192433001Y-99000000I-249999J0D01*
G01*
G37*
X180496000Y-80010000D03*
X187296000Y-80010000D03*
X180496000Y-69342000D03*
X187296000Y-69342000D03*
G36*
G01*
X177816500Y-69184000D02*
X178291500Y-69184000D01*
G75*
G02*
X178529000Y-69421500I0J-237500D01*
G01*
X178529000Y-69996500D01*
G75*
G02*
X178291500Y-70234000I-237500J0D01*
G01*
X177816500Y-70234000D01*
G75*
G02*
X177579000Y-69996500I0J237500D01*
G01*
X177579000Y-69421500D01*
G75*
G02*
X177816500Y-69184000I237500J0D01*
G01*
G37*
G36*
G01*
X177816500Y-67434000D02*
X178291500Y-67434000D01*
G75*
G02*
X178529000Y-67671500I0J-237500D01*
G01*
X178529000Y-68246500D01*
G75*
G02*
X178291500Y-68484000I-237500J0D01*
G01*
X177816500Y-68484000D01*
G75*
G02*
X177579000Y-68246500I0J237500D01*
G01*
X177579000Y-67671500D01*
G75*
G02*
X177816500Y-67434000I237500J0D01*
G01*
G37*
G36*
G01*
X141494500Y-88855000D02*
X141969500Y-88855000D01*
G75*
G02*
X142207000Y-89092500I0J-237500D01*
G01*
X142207000Y-89667500D01*
G75*
G02*
X141969500Y-89905000I-237500J0D01*
G01*
X141494500Y-89905000D01*
G75*
G02*
X141257000Y-89667500I0J237500D01*
G01*
X141257000Y-89092500D01*
G75*
G02*
X141494500Y-88855000I237500J0D01*
G01*
G37*
G36*
G01*
X141494500Y-87105000D02*
X141969500Y-87105000D01*
G75*
G02*
X142207000Y-87342500I0J-237500D01*
G01*
X142207000Y-87917500D01*
G75*
G02*
X141969500Y-88155000I-237500J0D01*
G01*
X141494500Y-88155000D01*
G75*
G02*
X141257000Y-87917500I0J237500D01*
G01*
X141257000Y-87342500D01*
G75*
G02*
X141494500Y-87105000I237500J0D01*
G01*
G37*
G36*
G01*
X183292000Y-93742500D02*
X183292000Y-94217500D01*
G75*
G02*
X183054500Y-94455000I-237500J0D01*
G01*
X182479500Y-94455000D01*
G75*
G02*
X182242000Y-94217500I0J237500D01*
G01*
X182242000Y-93742500D01*
G75*
G02*
X182479500Y-93505000I237500J0D01*
G01*
X183054500Y-93505000D01*
G75*
G02*
X183292000Y-93742500I0J-237500D01*
G01*
G37*
G36*
G01*
X185042000Y-93742500D02*
X185042000Y-94217500D01*
G75*
G02*
X184804500Y-94455000I-237500J0D01*
G01*
X184229500Y-94455000D01*
G75*
G02*
X183992000Y-94217500I0J237500D01*
G01*
X183992000Y-93742500D01*
G75*
G02*
X184229500Y-93505000I237500J0D01*
G01*
X184804500Y-93505000D01*
G75*
G02*
X185042000Y-93742500I0J-237500D01*
G01*
G37*
G36*
G01*
X133587500Y-79152000D02*
X133112500Y-79152000D01*
G75*
G02*
X132875000Y-78914500I0J237500D01*
G01*
X132875000Y-78339500D01*
G75*
G02*
X133112500Y-78102000I237500J0D01*
G01*
X133587500Y-78102000D01*
G75*
G02*
X133825000Y-78339500I0J-237500D01*
G01*
X133825000Y-78914500D01*
G75*
G02*
X133587500Y-79152000I-237500J0D01*
G01*
G37*
G36*
G01*
X133587500Y-80902000D02*
X133112500Y-80902000D01*
G75*
G02*
X132875000Y-80664500I0J237500D01*
G01*
X132875000Y-80089500D01*
G75*
G02*
X133112500Y-79852000I237500J0D01*
G01*
X133587500Y-79852000D01*
G75*
G02*
X133825000Y-80089500I0J-237500D01*
G01*
X133825000Y-80664500D01*
G75*
G02*
X133587500Y-80902000I-237500J0D01*
G01*
G37*
G36*
G01*
X120379500Y-78136000D02*
X119904500Y-78136000D01*
G75*
G02*
X119667000Y-77898500I0J237500D01*
G01*
X119667000Y-77323500D01*
G75*
G02*
X119904500Y-77086000I237500J0D01*
G01*
X120379500Y-77086000D01*
G75*
G02*
X120617000Y-77323500I0J-237500D01*
G01*
X120617000Y-77898500D01*
G75*
G02*
X120379500Y-78136000I-237500J0D01*
G01*
G37*
G36*
G01*
X120379500Y-79886000D02*
X119904500Y-79886000D01*
G75*
G02*
X119667000Y-79648500I0J237500D01*
G01*
X119667000Y-79073500D01*
G75*
G02*
X119904500Y-78836000I237500J0D01*
G01*
X120379500Y-78836000D01*
G75*
G02*
X120617000Y-79073500I0J-237500D01*
G01*
X120617000Y-79648500D01*
G75*
G02*
X120379500Y-79886000I-237500J0D01*
G01*
G37*
G36*
G01*
X123173500Y-78136000D02*
X122698500Y-78136000D01*
G75*
G02*
X122461000Y-77898500I0J237500D01*
G01*
X122461000Y-77323500D01*
G75*
G02*
X122698500Y-77086000I237500J0D01*
G01*
X123173500Y-77086000D01*
G75*
G02*
X123411000Y-77323500I0J-237500D01*
G01*
X123411000Y-77898500D01*
G75*
G02*
X123173500Y-78136000I-237500J0D01*
G01*
G37*
G36*
G01*
X123173500Y-79886000D02*
X122698500Y-79886000D01*
G75*
G02*
X122461000Y-79648500I0J237500D01*
G01*
X122461000Y-79073500D01*
G75*
G02*
X122698500Y-78836000I237500J0D01*
G01*
X123173500Y-78836000D01*
G75*
G02*
X123411000Y-79073500I0J-237500D01*
G01*
X123411000Y-79648500D01*
G75*
G02*
X123173500Y-79886000I-237500J0D01*
G01*
G37*
G36*
G01*
X133587500Y-88804000D02*
X133112500Y-88804000D01*
G75*
G02*
X132875000Y-88566500I0J237500D01*
G01*
X132875000Y-87991500D01*
G75*
G02*
X133112500Y-87754000I237500J0D01*
G01*
X133587500Y-87754000D01*
G75*
G02*
X133825000Y-87991500I0J-237500D01*
G01*
X133825000Y-88566500D01*
G75*
G02*
X133587500Y-88804000I-237500J0D01*
G01*
G37*
G36*
G01*
X133587500Y-90554000D02*
X133112500Y-90554000D01*
G75*
G02*
X132875000Y-90316500I0J237500D01*
G01*
X132875000Y-89741500D01*
G75*
G02*
X133112500Y-89504000I237500J0D01*
G01*
X133587500Y-89504000D01*
G75*
G02*
X133825000Y-89741500I0J-237500D01*
G01*
X133825000Y-90316500D01*
G75*
G02*
X133587500Y-90554000I-237500J0D01*
G01*
G37*
G36*
G01*
X120379500Y-85756000D02*
X119904500Y-85756000D01*
G75*
G02*
X119667000Y-85518500I0J237500D01*
G01*
X119667000Y-84943500D01*
G75*
G02*
X119904500Y-84706000I237500J0D01*
G01*
X120379500Y-84706000D01*
G75*
G02*
X120617000Y-84943500I0J-237500D01*
G01*
X120617000Y-85518500D01*
G75*
G02*
X120379500Y-85756000I-237500J0D01*
G01*
G37*
G36*
G01*
X120379500Y-87506000D02*
X119904500Y-87506000D01*
G75*
G02*
X119667000Y-87268500I0J237500D01*
G01*
X119667000Y-86693500D01*
G75*
G02*
X119904500Y-86456000I237500J0D01*
G01*
X120379500Y-86456000D01*
G75*
G02*
X120617000Y-86693500I0J-237500D01*
G01*
X120617000Y-87268500D01*
G75*
G02*
X120379500Y-87506000I-237500J0D01*
G01*
G37*
G36*
G01*
X123173500Y-85756000D02*
X122698500Y-85756000D01*
G75*
G02*
X122461000Y-85518500I0J237500D01*
G01*
X122461000Y-84943500D01*
G75*
G02*
X122698500Y-84706000I237500J0D01*
G01*
X123173500Y-84706000D01*
G75*
G02*
X123411000Y-84943500I0J-237500D01*
G01*
X123411000Y-85518500D01*
G75*
G02*
X123173500Y-85756000I-237500J0D01*
G01*
G37*
G36*
G01*
X123173500Y-87506000D02*
X122698500Y-87506000D01*
G75*
G02*
X122461000Y-87268500I0J237500D01*
G01*
X122461000Y-86693500D01*
G75*
G02*
X122698500Y-86456000I237500J0D01*
G01*
X123173500Y-86456000D01*
G75*
G02*
X123411000Y-86693500I0J-237500D01*
G01*
X123411000Y-87268500D01*
G75*
G02*
X123173500Y-87506000I-237500J0D01*
G01*
G37*
G36*
G01*
X133587500Y-83978000D02*
X133112500Y-83978000D01*
G75*
G02*
X132875000Y-83740500I0J237500D01*
G01*
X132875000Y-83165500D01*
G75*
G02*
X133112500Y-82928000I237500J0D01*
G01*
X133587500Y-82928000D01*
G75*
G02*
X133825000Y-83165500I0J-237500D01*
G01*
X133825000Y-83740500D01*
G75*
G02*
X133587500Y-83978000I-237500J0D01*
G01*
G37*
G36*
G01*
X133587500Y-85728000D02*
X133112500Y-85728000D01*
G75*
G02*
X132875000Y-85490500I0J237500D01*
G01*
X132875000Y-84915500D01*
G75*
G02*
X133112500Y-84678000I237500J0D01*
G01*
X133587500Y-84678000D01*
G75*
G02*
X133825000Y-84915500I0J-237500D01*
G01*
X133825000Y-85490500D01*
G75*
G02*
X133587500Y-85728000I-237500J0D01*
G01*
G37*
G36*
G01*
X133587500Y-93489000D02*
X133112500Y-93489000D01*
G75*
G02*
X132875000Y-93251500I0J237500D01*
G01*
X132875000Y-92676500D01*
G75*
G02*
X133112500Y-92439000I237500J0D01*
G01*
X133587500Y-92439000D01*
G75*
G02*
X133825000Y-92676500I0J-237500D01*
G01*
X133825000Y-93251500D01*
G75*
G02*
X133587500Y-93489000I-237500J0D01*
G01*
G37*
G36*
G01*
X133587500Y-95239000D02*
X133112500Y-95239000D01*
G75*
G02*
X132875000Y-95001500I0J237500D01*
G01*
X132875000Y-94426500D01*
G75*
G02*
X133112500Y-94189000I237500J0D01*
G01*
X133587500Y-94189000D01*
G75*
G02*
X133825000Y-94426500I0J-237500D01*
G01*
X133825000Y-95001500D01*
G75*
G02*
X133587500Y-95239000I-237500J0D01*
G01*
G37*
G36*
G01*
X120379500Y-81946000D02*
X119904500Y-81946000D01*
G75*
G02*
X119667000Y-81708500I0J237500D01*
G01*
X119667000Y-81133500D01*
G75*
G02*
X119904500Y-80896000I237500J0D01*
G01*
X120379500Y-80896000D01*
G75*
G02*
X120617000Y-81133500I0J-237500D01*
G01*
X120617000Y-81708500D01*
G75*
G02*
X120379500Y-81946000I-237500J0D01*
G01*
G37*
G36*
G01*
X120379500Y-83696000D02*
X119904500Y-83696000D01*
G75*
G02*
X119667000Y-83458500I0J237500D01*
G01*
X119667000Y-82883500D01*
G75*
G02*
X119904500Y-82646000I237500J0D01*
G01*
X120379500Y-82646000D01*
G75*
G02*
X120617000Y-82883500I0J-237500D01*
G01*
X120617000Y-83458500D01*
G75*
G02*
X120379500Y-83696000I-237500J0D01*
G01*
G37*
G36*
G01*
X123173500Y-81946000D02*
X122698500Y-81946000D01*
G75*
G02*
X122461000Y-81708500I0J237500D01*
G01*
X122461000Y-81133500D01*
G75*
G02*
X122698500Y-80896000I237500J0D01*
G01*
X123173500Y-80896000D01*
G75*
G02*
X123411000Y-81133500I0J-237500D01*
G01*
X123411000Y-81708500D01*
G75*
G02*
X123173500Y-81946000I-237500J0D01*
G01*
G37*
G36*
G01*
X123173500Y-83696000D02*
X122698500Y-83696000D01*
G75*
G02*
X122461000Y-83458500I0J237500D01*
G01*
X122461000Y-82883500D01*
G75*
G02*
X122698500Y-82646000I237500J0D01*
G01*
X123173500Y-82646000D01*
G75*
G02*
X123411000Y-82883500I0J-237500D01*
G01*
X123411000Y-83458500D01*
G75*
G02*
X123173500Y-83696000I-237500J0D01*
G01*
G37*
G36*
G01*
X120379500Y-89820000D02*
X119904500Y-89820000D01*
G75*
G02*
X119667000Y-89582500I0J237500D01*
G01*
X119667000Y-89007500D01*
G75*
G02*
X119904500Y-88770000I237500J0D01*
G01*
X120379500Y-88770000D01*
G75*
G02*
X120617000Y-89007500I0J-237500D01*
G01*
X120617000Y-89582500D01*
G75*
G02*
X120379500Y-89820000I-237500J0D01*
G01*
G37*
G36*
G01*
X120379500Y-91570000D02*
X119904500Y-91570000D01*
G75*
G02*
X119667000Y-91332500I0J237500D01*
G01*
X119667000Y-90757500D01*
G75*
G02*
X119904500Y-90520000I237500J0D01*
G01*
X120379500Y-90520000D01*
G75*
G02*
X120617000Y-90757500I0J-237500D01*
G01*
X120617000Y-91332500D01*
G75*
G02*
X120379500Y-91570000I-237500J0D01*
G01*
G37*
G36*
G01*
X123173500Y-89820000D02*
X122698500Y-89820000D01*
G75*
G02*
X122461000Y-89582500I0J237500D01*
G01*
X122461000Y-89007500D01*
G75*
G02*
X122698500Y-88770000I237500J0D01*
G01*
X123173500Y-88770000D01*
G75*
G02*
X123411000Y-89007500I0J-237500D01*
G01*
X123411000Y-89582500D01*
G75*
G02*
X123173500Y-89820000I-237500J0D01*
G01*
G37*
G36*
G01*
X123173500Y-91570000D02*
X122698500Y-91570000D01*
G75*
G02*
X122461000Y-91332500I0J237500D01*
G01*
X122461000Y-90757500D01*
G75*
G02*
X122698500Y-90520000I237500J0D01*
G01*
X123173500Y-90520000D01*
G75*
G02*
X123411000Y-90757500I0J-237500D01*
G01*
X123411000Y-91332500D01*
G75*
G02*
X123173500Y-91570000I-237500J0D01*
G01*
G37*
D10*
X131302000Y-77470000D03*
X129302000Y-78420000D03*
X129302000Y-76520000D03*
X131302000Y-87122000D03*
X129302000Y-88072000D03*
X129302000Y-86172000D03*
X131302000Y-82296000D03*
X129302000Y-83246000D03*
X129302000Y-81346000D03*
X131302000Y-91948000D03*
X129302000Y-92898000D03*
X129302000Y-90998000D03*
X127746000Y-74930000D03*
X125746000Y-75880000D03*
X125746000Y-73980000D03*
X127746000Y-84582000D03*
X125746000Y-85532000D03*
X125746000Y-83632000D03*
X127746000Y-79756000D03*
X125746000Y-80706000D03*
X125746000Y-78806000D03*
G36*
G01*
X135365500Y-71532000D02*
X134890500Y-71532000D01*
G75*
G02*
X134653000Y-71294500I0J237500D01*
G01*
X134653000Y-70719500D01*
G75*
G02*
X134890500Y-70482000I237500J0D01*
G01*
X135365500Y-70482000D01*
G75*
G02*
X135603000Y-70719500I0J-237500D01*
G01*
X135603000Y-71294500D01*
G75*
G02*
X135365500Y-71532000I-237500J0D01*
G01*
G37*
G36*
G01*
X135365500Y-73282000D02*
X134890500Y-73282000D01*
G75*
G02*
X134653000Y-73044500I0J237500D01*
G01*
X134653000Y-72469500D01*
G75*
G02*
X134890500Y-72232000I237500J0D01*
G01*
X135365500Y-72232000D01*
G75*
G02*
X135603000Y-72469500I0J-237500D01*
G01*
X135603000Y-73044500D01*
G75*
G02*
X135365500Y-73282000I-237500J0D01*
G01*
G37*
G36*
G01*
X163511000Y-105814000D02*
X163511000Y-105514000D01*
G75*
G02*
X163661000Y-105364000I150000J0D01*
G01*
X165336000Y-105364000D01*
G75*
G02*
X165486000Y-105514000I0J-150000D01*
G01*
X165486000Y-105814000D01*
G75*
G02*
X165336000Y-105964000I-150000J0D01*
G01*
X163661000Y-105964000D01*
G75*
G02*
X163511000Y-105814000I0J150000D01*
G01*
G37*
G36*
G01*
X163511000Y-107084000D02*
X163511000Y-106784000D01*
G75*
G02*
X163661000Y-106634000I150000J0D01*
G01*
X165336000Y-106634000D01*
G75*
G02*
X165486000Y-106784000I0J-150000D01*
G01*
X165486000Y-107084000D01*
G75*
G02*
X165336000Y-107234000I-150000J0D01*
G01*
X163661000Y-107234000D01*
G75*
G02*
X163511000Y-107084000I0J150000D01*
G01*
G37*
G36*
G01*
X163511000Y-108354000D02*
X163511000Y-108054000D01*
G75*
G02*
X163661000Y-107904000I150000J0D01*
G01*
X165336000Y-107904000D01*
G75*
G02*
X165486000Y-108054000I0J-150000D01*
G01*
X165486000Y-108354000D01*
G75*
G02*
X165336000Y-108504000I-150000J0D01*
G01*
X163661000Y-108504000D01*
G75*
G02*
X163511000Y-108354000I0J150000D01*
G01*
G37*
G36*
G01*
X163511000Y-109624000D02*
X163511000Y-109324000D01*
G75*
G02*
X163661000Y-109174000I150000J0D01*
G01*
X165336000Y-109174000D01*
G75*
G02*
X165486000Y-109324000I0J-150000D01*
G01*
X165486000Y-109624000D01*
G75*
G02*
X165336000Y-109774000I-150000J0D01*
G01*
X163661000Y-109774000D01*
G75*
G02*
X163511000Y-109624000I0J150000D01*
G01*
G37*
G36*
G01*
X163511000Y-110894000D02*
X163511000Y-110594000D01*
G75*
G02*
X163661000Y-110444000I150000J0D01*
G01*
X165336000Y-110444000D01*
G75*
G02*
X165486000Y-110594000I0J-150000D01*
G01*
X165486000Y-110894000D01*
G75*
G02*
X165336000Y-111044000I-150000J0D01*
G01*
X163661000Y-111044000D01*
G75*
G02*
X163511000Y-110894000I0J150000D01*
G01*
G37*
G36*
G01*
X163511000Y-112164000D02*
X163511000Y-111864000D01*
G75*
G02*
X163661000Y-111714000I150000J0D01*
G01*
X165336000Y-111714000D01*
G75*
G02*
X165486000Y-111864000I0J-150000D01*
G01*
X165486000Y-112164000D01*
G75*
G02*
X165336000Y-112314000I-150000J0D01*
G01*
X163661000Y-112314000D01*
G75*
G02*
X163511000Y-112164000I0J150000D01*
G01*
G37*
G36*
G01*
X163511000Y-113434000D02*
X163511000Y-113134000D01*
G75*
G02*
X163661000Y-112984000I150000J0D01*
G01*
X165336000Y-112984000D01*
G75*
G02*
X165486000Y-113134000I0J-150000D01*
G01*
X165486000Y-113434000D01*
G75*
G02*
X165336000Y-113584000I-150000J0D01*
G01*
X163661000Y-113584000D01*
G75*
G02*
X163511000Y-113434000I0J150000D01*
G01*
G37*
G36*
G01*
X156586000Y-113434000D02*
X156586000Y-113134000D01*
G75*
G02*
X156736000Y-112984000I150000J0D01*
G01*
X158411000Y-112984000D01*
G75*
G02*
X158561000Y-113134000I0J-150000D01*
G01*
X158561000Y-113434000D01*
G75*
G02*
X158411000Y-113584000I-150000J0D01*
G01*
X156736000Y-113584000D01*
G75*
G02*
X156586000Y-113434000I0J150000D01*
G01*
G37*
G36*
G01*
X156586000Y-112164000D02*
X156586000Y-111864000D01*
G75*
G02*
X156736000Y-111714000I150000J0D01*
G01*
X158411000Y-111714000D01*
G75*
G02*
X158561000Y-111864000I0J-150000D01*
G01*
X158561000Y-112164000D01*
G75*
G02*
X158411000Y-112314000I-150000J0D01*
G01*
X156736000Y-112314000D01*
G75*
G02*
X156586000Y-112164000I0J150000D01*
G01*
G37*
G36*
G01*
X156586000Y-110894000D02*
X156586000Y-110594000D01*
G75*
G02*
X156736000Y-110444000I150000J0D01*
G01*
X158411000Y-110444000D01*
G75*
G02*
X158561000Y-110594000I0J-150000D01*
G01*
X158561000Y-110894000D01*
G75*
G02*
X158411000Y-111044000I-150000J0D01*
G01*
X156736000Y-111044000D01*
G75*
G02*
X156586000Y-110894000I0J150000D01*
G01*
G37*
G36*
G01*
X156586000Y-109624000D02*
X156586000Y-109324000D01*
G75*
G02*
X156736000Y-109174000I150000J0D01*
G01*
X158411000Y-109174000D01*
G75*
G02*
X158561000Y-109324000I0J-150000D01*
G01*
X158561000Y-109624000D01*
G75*
G02*
X158411000Y-109774000I-150000J0D01*
G01*
X156736000Y-109774000D01*
G75*
G02*
X156586000Y-109624000I0J150000D01*
G01*
G37*
G36*
G01*
X156586000Y-108354000D02*
X156586000Y-108054000D01*
G75*
G02*
X156736000Y-107904000I150000J0D01*
G01*
X158411000Y-107904000D01*
G75*
G02*
X158561000Y-108054000I0J-150000D01*
G01*
X158561000Y-108354000D01*
G75*
G02*
X158411000Y-108504000I-150000J0D01*
G01*
X156736000Y-108504000D01*
G75*
G02*
X156586000Y-108354000I0J150000D01*
G01*
G37*
G36*
G01*
X156586000Y-107084000D02*
X156586000Y-106784000D01*
G75*
G02*
X156736000Y-106634000I150000J0D01*
G01*
X158411000Y-106634000D01*
G75*
G02*
X158561000Y-106784000I0J-150000D01*
G01*
X158561000Y-107084000D01*
G75*
G02*
X158411000Y-107234000I-150000J0D01*
G01*
X156736000Y-107234000D01*
G75*
G02*
X156586000Y-107084000I0J150000D01*
G01*
G37*
G36*
G01*
X156586000Y-105814000D02*
X156586000Y-105514000D01*
G75*
G02*
X156736000Y-105364000I150000J0D01*
G01*
X158411000Y-105364000D01*
G75*
G02*
X158561000Y-105514000I0J-150000D01*
G01*
X158561000Y-105814000D01*
G75*
G02*
X158411000Y-105964000I-150000J0D01*
G01*
X156736000Y-105964000D01*
G75*
G02*
X156586000Y-105814000I0J150000D01*
G01*
G37*
G36*
G01*
X174272500Y-105814000D02*
X174272500Y-105514000D01*
G75*
G02*
X174422500Y-105364000I150000J0D01*
G01*
X176097500Y-105364000D01*
G75*
G02*
X176247500Y-105514000I0J-150000D01*
G01*
X176247500Y-105814000D01*
G75*
G02*
X176097500Y-105964000I-150000J0D01*
G01*
X174422500Y-105964000D01*
G75*
G02*
X174272500Y-105814000I0J150000D01*
G01*
G37*
G36*
G01*
X174272500Y-107084000D02*
X174272500Y-106784000D01*
G75*
G02*
X174422500Y-106634000I150000J0D01*
G01*
X176097500Y-106634000D01*
G75*
G02*
X176247500Y-106784000I0J-150000D01*
G01*
X176247500Y-107084000D01*
G75*
G02*
X176097500Y-107234000I-150000J0D01*
G01*
X174422500Y-107234000D01*
G75*
G02*
X174272500Y-107084000I0J150000D01*
G01*
G37*
G36*
G01*
X174272500Y-108354000D02*
X174272500Y-108054000D01*
G75*
G02*
X174422500Y-107904000I150000J0D01*
G01*
X176097500Y-107904000D01*
G75*
G02*
X176247500Y-108054000I0J-150000D01*
G01*
X176247500Y-108354000D01*
G75*
G02*
X176097500Y-108504000I-150000J0D01*
G01*
X174422500Y-108504000D01*
G75*
G02*
X174272500Y-108354000I0J150000D01*
G01*
G37*
G36*
G01*
X174272500Y-109624000D02*
X174272500Y-109324000D01*
G75*
G02*
X174422500Y-109174000I150000J0D01*
G01*
X176097500Y-109174000D01*
G75*
G02*
X176247500Y-109324000I0J-150000D01*
G01*
X176247500Y-109624000D01*
G75*
G02*
X176097500Y-109774000I-150000J0D01*
G01*
X174422500Y-109774000D01*
G75*
G02*
X174272500Y-109624000I0J150000D01*
G01*
G37*
G36*
G01*
X174272500Y-110894000D02*
X174272500Y-110594000D01*
G75*
G02*
X174422500Y-110444000I150000J0D01*
G01*
X176097500Y-110444000D01*
G75*
G02*
X176247500Y-110594000I0J-150000D01*
G01*
X176247500Y-110894000D01*
G75*
G02*
X176097500Y-111044000I-150000J0D01*
G01*
X174422500Y-111044000D01*
G75*
G02*
X174272500Y-110894000I0J150000D01*
G01*
G37*
G36*
G01*
X174272500Y-112164000D02*
X174272500Y-111864000D01*
G75*
G02*
X174422500Y-111714000I150000J0D01*
G01*
X176097500Y-111714000D01*
G75*
G02*
X176247500Y-111864000I0J-150000D01*
G01*
X176247500Y-112164000D01*
G75*
G02*
X176097500Y-112314000I-150000J0D01*
G01*
X174422500Y-112314000D01*
G75*
G02*
X174272500Y-112164000I0J150000D01*
G01*
G37*
G36*
G01*
X174272500Y-113434000D02*
X174272500Y-113134000D01*
G75*
G02*
X174422500Y-112984000I150000J0D01*
G01*
X176097500Y-112984000D01*
G75*
G02*
X176247500Y-113134000I0J-150000D01*
G01*
X176247500Y-113434000D01*
G75*
G02*
X176097500Y-113584000I-150000J0D01*
G01*
X174422500Y-113584000D01*
G75*
G02*
X174272500Y-113434000I0J150000D01*
G01*
G37*
G36*
G01*
X167347500Y-113434000D02*
X167347500Y-113134000D01*
G75*
G02*
X167497500Y-112984000I150000J0D01*
G01*
X169172500Y-112984000D01*
G75*
G02*
X169322500Y-113134000I0J-150000D01*
G01*
X169322500Y-113434000D01*
G75*
G02*
X169172500Y-113584000I-150000J0D01*
G01*
X167497500Y-113584000D01*
G75*
G02*
X167347500Y-113434000I0J150000D01*
G01*
G37*
G36*
G01*
X167347500Y-112164000D02*
X167347500Y-111864000D01*
G75*
G02*
X167497500Y-111714000I150000J0D01*
G01*
X169172500Y-111714000D01*
G75*
G02*
X169322500Y-111864000I0J-150000D01*
G01*
X169322500Y-112164000D01*
G75*
G02*
X169172500Y-112314000I-150000J0D01*
G01*
X167497500Y-112314000D01*
G75*
G02*
X167347500Y-112164000I0J150000D01*
G01*
G37*
G36*
G01*
X167347500Y-110894000D02*
X167347500Y-110594000D01*
G75*
G02*
X167497500Y-110444000I150000J0D01*
G01*
X169172500Y-110444000D01*
G75*
G02*
X169322500Y-110594000I0J-150000D01*
G01*
X169322500Y-110894000D01*
G75*
G02*
X169172500Y-111044000I-150000J0D01*
G01*
X167497500Y-111044000D01*
G75*
G02*
X167347500Y-110894000I0J150000D01*
G01*
G37*
G36*
G01*
X167347500Y-109624000D02*
X167347500Y-109324000D01*
G75*
G02*
X167497500Y-109174000I150000J0D01*
G01*
X169172500Y-109174000D01*
G75*
G02*
X169322500Y-109324000I0J-150000D01*
G01*
X169322500Y-109624000D01*
G75*
G02*
X169172500Y-109774000I-150000J0D01*
G01*
X167497500Y-109774000D01*
G75*
G02*
X167347500Y-109624000I0J150000D01*
G01*
G37*
G36*
G01*
X167347500Y-108354000D02*
X167347500Y-108054000D01*
G75*
G02*
X167497500Y-107904000I150000J0D01*
G01*
X169172500Y-107904000D01*
G75*
G02*
X169322500Y-108054000I0J-150000D01*
G01*
X169322500Y-108354000D01*
G75*
G02*
X169172500Y-108504000I-150000J0D01*
G01*
X167497500Y-108504000D01*
G75*
G02*
X167347500Y-108354000I0J150000D01*
G01*
G37*
G36*
G01*
X167347500Y-107084000D02*
X167347500Y-106784000D01*
G75*
G02*
X167497500Y-106634000I150000J0D01*
G01*
X169172500Y-106634000D01*
G75*
G02*
X169322500Y-106784000I0J-150000D01*
G01*
X169322500Y-107084000D01*
G75*
G02*
X169172500Y-107234000I-150000J0D01*
G01*
X167497500Y-107234000D01*
G75*
G02*
X167347500Y-107084000I0J150000D01*
G01*
G37*
G36*
G01*
X167347500Y-105814000D02*
X167347500Y-105514000D01*
G75*
G02*
X167497500Y-105364000I150000J0D01*
G01*
X169172500Y-105364000D01*
G75*
G02*
X169322500Y-105514000I0J-150000D01*
G01*
X169322500Y-105814000D01*
G75*
G02*
X169172500Y-105964000I-150000J0D01*
G01*
X167497500Y-105964000D01*
G75*
G02*
X167347500Y-105814000I0J150000D01*
G01*
G37*
G36*
G01*
X192433001Y-101661000D02*
X189582999Y-101661000D01*
G75*
G02*
X189333000Y-101411001I0J249999D01*
G01*
X189333000Y-100385999D01*
G75*
G02*
X189582999Y-100136000I249999J0D01*
G01*
X192433001Y-100136000D01*
G75*
G02*
X192683000Y-100385999I0J-249999D01*
G01*
X192683000Y-101411001D01*
G75*
G02*
X192433001Y-101661000I-249999J0D01*
G01*
G37*
G36*
G01*
X192433001Y-107636000D02*
X189582999Y-107636000D01*
G75*
G02*
X189333000Y-107386001I0J249999D01*
G01*
X189333000Y-106360999D01*
G75*
G02*
X189582999Y-106111000I249999J0D01*
G01*
X192433001Y-106111000D01*
G75*
G02*
X192683000Y-106360999I0J-249999D01*
G01*
X192683000Y-107386001D01*
G75*
G02*
X192433001Y-107636000I-249999J0D01*
G01*
G37*
D12*
X127000000Y-97568000D03*
X127000000Y-101568000D03*
D13*
X137110000Y-101868000D03*
X137110000Y-97268000D03*
X137110000Y-99568000D03*
D14*
X130810000Y-99568000D03*
G36*
G01*
X141320000Y-68563500D02*
X141320000Y-68088500D01*
G75*
G02*
X141557500Y-67851000I237500J0D01*
G01*
X142132500Y-67851000D01*
G75*
G02*
X142370000Y-68088500I0J-237500D01*
G01*
X142370000Y-68563500D01*
G75*
G02*
X142132500Y-68801000I-237500J0D01*
G01*
X141557500Y-68801000D01*
G75*
G02*
X141320000Y-68563500I0J237500D01*
G01*
G37*
G36*
G01*
X139570000Y-68563500D02*
X139570000Y-68088500D01*
G75*
G02*
X139807500Y-67851000I237500J0D01*
G01*
X140382500Y-67851000D01*
G75*
G02*
X140620000Y-68088500I0J-237500D01*
G01*
X140620000Y-68563500D01*
G75*
G02*
X140382500Y-68801000I-237500J0D01*
G01*
X139807500Y-68801000D01*
G75*
G02*
X139570000Y-68563500I0J237500D01*
G01*
G37*
G36*
G01*
X141320000Y-71611500D02*
X141320000Y-71136500D01*
G75*
G02*
X141557500Y-70899000I237500J0D01*
G01*
X142132500Y-70899000D01*
G75*
G02*
X142370000Y-71136500I0J-237500D01*
G01*
X142370000Y-71611500D01*
G75*
G02*
X142132500Y-71849000I-237500J0D01*
G01*
X141557500Y-71849000D01*
G75*
G02*
X141320000Y-71611500I0J237500D01*
G01*
G37*
G36*
G01*
X139570000Y-71611500D02*
X139570000Y-71136500D01*
G75*
G02*
X139807500Y-70899000I237500J0D01*
G01*
X140382500Y-70899000D01*
G75*
G02*
X140620000Y-71136500I0J-237500D01*
G01*
X140620000Y-71611500D01*
G75*
G02*
X140382500Y-71849000I-237500J0D01*
G01*
X139807500Y-71849000D01*
G75*
G02*
X139570000Y-71611500I0J237500D01*
G01*
G37*
G36*
G01*
X147860000Y-89678000D02*
X147860000Y-91678000D01*
G75*
G02*
X147610000Y-91928000I-250000J0D01*
G01*
X143710000Y-91928000D01*
G75*
G02*
X143460000Y-91678000I0J250000D01*
G01*
X143460000Y-89678000D01*
G75*
G02*
X143710000Y-89428000I250000J0D01*
G01*
X147610000Y-89428000D01*
G75*
G02*
X147860000Y-89678000I0J-250000D01*
G01*
G37*
G36*
G01*
X156260000Y-89678000D02*
X156260000Y-91678000D01*
G75*
G02*
X156010000Y-91928000I-250000J0D01*
G01*
X152110000Y-91928000D01*
G75*
G02*
X151860000Y-91678000I0J250000D01*
G01*
X151860000Y-89678000D01*
G75*
G02*
X152110000Y-89428000I250000J0D01*
G01*
X156010000Y-89428000D01*
G75*
G02*
X156260000Y-89678000I0J-250000D01*
G01*
G37*
G36*
G01*
X147860000Y-78502000D02*
X147860000Y-80502000D01*
G75*
G02*
X147610000Y-80752000I-250000J0D01*
G01*
X143710000Y-80752000D01*
G75*
G02*
X143460000Y-80502000I0J250000D01*
G01*
X143460000Y-78502000D01*
G75*
G02*
X143710000Y-78252000I250000J0D01*
G01*
X147610000Y-78252000D01*
G75*
G02*
X147860000Y-78502000I0J-250000D01*
G01*
G37*
G36*
G01*
X156260000Y-78502000D02*
X156260000Y-80502000D01*
G75*
G02*
X156010000Y-80752000I-250000J0D01*
G01*
X152110000Y-80752000D01*
G75*
G02*
X151860000Y-80502000I0J250000D01*
G01*
X151860000Y-78502000D01*
G75*
G02*
X152110000Y-78252000I250000J0D01*
G01*
X156010000Y-78252000D01*
G75*
G02*
X156260000Y-78502000I0J-250000D01*
G01*
G37*
G36*
G01*
X147860000Y-100854000D02*
X147860000Y-102854000D01*
G75*
G02*
X147610000Y-103104000I-250000J0D01*
G01*
X143710000Y-103104000D01*
G75*
G02*
X143460000Y-102854000I0J250000D01*
G01*
X143460000Y-100854000D01*
G75*
G02*
X143710000Y-100604000I250000J0D01*
G01*
X147610000Y-100604000D01*
G75*
G02*
X147860000Y-100854000I0J-250000D01*
G01*
G37*
G36*
G01*
X156260000Y-100854000D02*
X156260000Y-102854000D01*
G75*
G02*
X156010000Y-103104000I-250000J0D01*
G01*
X152110000Y-103104000D01*
G75*
G02*
X151860000Y-102854000I0J250000D01*
G01*
X151860000Y-100854000D01*
G75*
G02*
X152110000Y-100604000I250000J0D01*
G01*
X156010000Y-100604000D01*
G75*
G02*
X156260000Y-100854000I0J-250000D01*
G01*
G37*
D15*
X193548000Y-73152000D03*
X190048000Y-73152000D03*
G36*
G01*
X163511000Y-68984000D02*
X163511000Y-68684000D01*
G75*
G02*
X163661000Y-68534000I150000J0D01*
G01*
X165336000Y-68534000D01*
G75*
G02*
X165486000Y-68684000I0J-150000D01*
G01*
X165486000Y-68984000D01*
G75*
G02*
X165336000Y-69134000I-150000J0D01*
G01*
X163661000Y-69134000D01*
G75*
G02*
X163511000Y-68984000I0J150000D01*
G01*
G37*
G36*
G01*
X163511000Y-70254000D02*
X163511000Y-69954000D01*
G75*
G02*
X163661000Y-69804000I150000J0D01*
G01*
X165336000Y-69804000D01*
G75*
G02*
X165486000Y-69954000I0J-150000D01*
G01*
X165486000Y-70254000D01*
G75*
G02*
X165336000Y-70404000I-150000J0D01*
G01*
X163661000Y-70404000D01*
G75*
G02*
X163511000Y-70254000I0J150000D01*
G01*
G37*
G36*
G01*
X163511000Y-71524000D02*
X163511000Y-71224000D01*
G75*
G02*
X163661000Y-71074000I150000J0D01*
G01*
X165336000Y-71074000D01*
G75*
G02*
X165486000Y-71224000I0J-150000D01*
G01*
X165486000Y-71524000D01*
G75*
G02*
X165336000Y-71674000I-150000J0D01*
G01*
X163661000Y-71674000D01*
G75*
G02*
X163511000Y-71524000I0J150000D01*
G01*
G37*
G36*
G01*
X163511000Y-72794000D02*
X163511000Y-72494000D01*
G75*
G02*
X163661000Y-72344000I150000J0D01*
G01*
X165336000Y-72344000D01*
G75*
G02*
X165486000Y-72494000I0J-150000D01*
G01*
X165486000Y-72794000D01*
G75*
G02*
X165336000Y-72944000I-150000J0D01*
G01*
X163661000Y-72944000D01*
G75*
G02*
X163511000Y-72794000I0J150000D01*
G01*
G37*
G36*
G01*
X163511000Y-74064000D02*
X163511000Y-73764000D01*
G75*
G02*
X163661000Y-73614000I150000J0D01*
G01*
X165336000Y-73614000D01*
G75*
G02*
X165486000Y-73764000I0J-150000D01*
G01*
X165486000Y-74064000D01*
G75*
G02*
X165336000Y-74214000I-150000J0D01*
G01*
X163661000Y-74214000D01*
G75*
G02*
X163511000Y-74064000I0J150000D01*
G01*
G37*
G36*
G01*
X163511000Y-75334000D02*
X163511000Y-75034000D01*
G75*
G02*
X163661000Y-74884000I150000J0D01*
G01*
X165336000Y-74884000D01*
G75*
G02*
X165486000Y-75034000I0J-150000D01*
G01*
X165486000Y-75334000D01*
G75*
G02*
X165336000Y-75484000I-150000J0D01*
G01*
X163661000Y-75484000D01*
G75*
G02*
X163511000Y-75334000I0J150000D01*
G01*
G37*
G36*
G01*
X163511000Y-76604000D02*
X163511000Y-76304000D01*
G75*
G02*
X163661000Y-76154000I150000J0D01*
G01*
X165336000Y-76154000D01*
G75*
G02*
X165486000Y-76304000I0J-150000D01*
G01*
X165486000Y-76604000D01*
G75*
G02*
X165336000Y-76754000I-150000J0D01*
G01*
X163661000Y-76754000D01*
G75*
G02*
X163511000Y-76604000I0J150000D01*
G01*
G37*
G36*
G01*
X156586000Y-76604000D02*
X156586000Y-76304000D01*
G75*
G02*
X156736000Y-76154000I150000J0D01*
G01*
X158411000Y-76154000D01*
G75*
G02*
X158561000Y-76304000I0J-150000D01*
G01*
X158561000Y-76604000D01*
G75*
G02*
X158411000Y-76754000I-150000J0D01*
G01*
X156736000Y-76754000D01*
G75*
G02*
X156586000Y-76604000I0J150000D01*
G01*
G37*
G36*
G01*
X156586000Y-75334000D02*
X156586000Y-75034000D01*
G75*
G02*
X156736000Y-74884000I150000J0D01*
G01*
X158411000Y-74884000D01*
G75*
G02*
X158561000Y-75034000I0J-150000D01*
G01*
X158561000Y-75334000D01*
G75*
G02*
X158411000Y-75484000I-150000J0D01*
G01*
X156736000Y-75484000D01*
G75*
G02*
X156586000Y-75334000I0J150000D01*
G01*
G37*
G36*
G01*
X156586000Y-74064000D02*
X156586000Y-73764000D01*
G75*
G02*
X156736000Y-73614000I150000J0D01*
G01*
X158411000Y-73614000D01*
G75*
G02*
X158561000Y-73764000I0J-150000D01*
G01*
X158561000Y-74064000D01*
G75*
G02*
X158411000Y-74214000I-150000J0D01*
G01*
X156736000Y-74214000D01*
G75*
G02*
X156586000Y-74064000I0J150000D01*
G01*
G37*
G36*
G01*
X156586000Y-72794000D02*
X156586000Y-72494000D01*
G75*
G02*
X156736000Y-72344000I150000J0D01*
G01*
X158411000Y-72344000D01*
G75*
G02*
X158561000Y-72494000I0J-150000D01*
G01*
X158561000Y-72794000D01*
G75*
G02*
X158411000Y-72944000I-150000J0D01*
G01*
X156736000Y-72944000D01*
G75*
G02*
X156586000Y-72794000I0J150000D01*
G01*
G37*
G36*
G01*
X156586000Y-71524000D02*
X156586000Y-71224000D01*
G75*
G02*
X156736000Y-71074000I150000J0D01*
G01*
X158411000Y-71074000D01*
G75*
G02*
X158561000Y-71224000I0J-150000D01*
G01*
X158561000Y-71524000D01*
G75*
G02*
X158411000Y-71674000I-150000J0D01*
G01*
X156736000Y-71674000D01*
G75*
G02*
X156586000Y-71524000I0J150000D01*
G01*
G37*
G36*
G01*
X156586000Y-70254000D02*
X156586000Y-69954000D01*
G75*
G02*
X156736000Y-69804000I150000J0D01*
G01*
X158411000Y-69804000D01*
G75*
G02*
X158561000Y-69954000I0J-150000D01*
G01*
X158561000Y-70254000D01*
G75*
G02*
X158411000Y-70404000I-150000J0D01*
G01*
X156736000Y-70404000D01*
G75*
G02*
X156586000Y-70254000I0J150000D01*
G01*
G37*
G36*
G01*
X156586000Y-68984000D02*
X156586000Y-68684000D01*
G75*
G02*
X156736000Y-68534000I150000J0D01*
G01*
X158411000Y-68534000D01*
G75*
G02*
X158561000Y-68684000I0J-150000D01*
G01*
X158561000Y-68984000D01*
G75*
G02*
X158411000Y-69134000I-150000J0D01*
G01*
X156736000Y-69134000D01*
G75*
G02*
X156586000Y-68984000I0J150000D01*
G01*
G37*
G36*
G01*
X164781000Y-87272000D02*
X164781000Y-86972000D01*
G75*
G02*
X164931000Y-86822000I150000J0D01*
G01*
X166606000Y-86822000D01*
G75*
G02*
X166756000Y-86972000I0J-150000D01*
G01*
X166756000Y-87272000D01*
G75*
G02*
X166606000Y-87422000I-150000J0D01*
G01*
X164931000Y-87422000D01*
G75*
G02*
X164781000Y-87272000I0J150000D01*
G01*
G37*
G36*
G01*
X164781000Y-88542000D02*
X164781000Y-88242000D01*
G75*
G02*
X164931000Y-88092000I150000J0D01*
G01*
X166606000Y-88092000D01*
G75*
G02*
X166756000Y-88242000I0J-150000D01*
G01*
X166756000Y-88542000D01*
G75*
G02*
X166606000Y-88692000I-150000J0D01*
G01*
X164931000Y-88692000D01*
G75*
G02*
X164781000Y-88542000I0J150000D01*
G01*
G37*
G36*
G01*
X164781000Y-89812000D02*
X164781000Y-89512000D01*
G75*
G02*
X164931000Y-89362000I150000J0D01*
G01*
X166606000Y-89362000D01*
G75*
G02*
X166756000Y-89512000I0J-150000D01*
G01*
X166756000Y-89812000D01*
G75*
G02*
X166606000Y-89962000I-150000J0D01*
G01*
X164931000Y-89962000D01*
G75*
G02*
X164781000Y-89812000I0J150000D01*
G01*
G37*
G36*
G01*
X164781000Y-91082000D02*
X164781000Y-90782000D01*
G75*
G02*
X164931000Y-90632000I150000J0D01*
G01*
X166606000Y-90632000D01*
G75*
G02*
X166756000Y-90782000I0J-150000D01*
G01*
X166756000Y-91082000D01*
G75*
G02*
X166606000Y-91232000I-150000J0D01*
G01*
X164931000Y-91232000D01*
G75*
G02*
X164781000Y-91082000I0J150000D01*
G01*
G37*
G36*
G01*
X164781000Y-92352000D02*
X164781000Y-92052000D01*
G75*
G02*
X164931000Y-91902000I150000J0D01*
G01*
X166606000Y-91902000D01*
G75*
G02*
X166756000Y-92052000I0J-150000D01*
G01*
X166756000Y-92352000D01*
G75*
G02*
X166606000Y-92502000I-150000J0D01*
G01*
X164931000Y-92502000D01*
G75*
G02*
X164781000Y-92352000I0J150000D01*
G01*
G37*
G36*
G01*
X164781000Y-93622000D02*
X164781000Y-93322000D01*
G75*
G02*
X164931000Y-93172000I150000J0D01*
G01*
X166606000Y-93172000D01*
G75*
G02*
X166756000Y-93322000I0J-150000D01*
G01*
X166756000Y-93622000D01*
G75*
G02*
X166606000Y-93772000I-150000J0D01*
G01*
X164931000Y-93772000D01*
G75*
G02*
X164781000Y-93622000I0J150000D01*
G01*
G37*
G36*
G01*
X164781000Y-94892000D02*
X164781000Y-94592000D01*
G75*
G02*
X164931000Y-94442000I150000J0D01*
G01*
X166606000Y-94442000D01*
G75*
G02*
X166756000Y-94592000I0J-150000D01*
G01*
X166756000Y-94892000D01*
G75*
G02*
X166606000Y-95042000I-150000J0D01*
G01*
X164931000Y-95042000D01*
G75*
G02*
X164781000Y-94892000I0J150000D01*
G01*
G37*
G36*
G01*
X157856000Y-94892000D02*
X157856000Y-94592000D01*
G75*
G02*
X158006000Y-94442000I150000J0D01*
G01*
X159681000Y-94442000D01*
G75*
G02*
X159831000Y-94592000I0J-150000D01*
G01*
X159831000Y-94892000D01*
G75*
G02*
X159681000Y-95042000I-150000J0D01*
G01*
X158006000Y-95042000D01*
G75*
G02*
X157856000Y-94892000I0J150000D01*
G01*
G37*
G36*
G01*
X157856000Y-93622000D02*
X157856000Y-93322000D01*
G75*
G02*
X158006000Y-93172000I150000J0D01*
G01*
X159681000Y-93172000D01*
G75*
G02*
X159831000Y-93322000I0J-150000D01*
G01*
X159831000Y-93622000D01*
G75*
G02*
X159681000Y-93772000I-150000J0D01*
G01*
X158006000Y-93772000D01*
G75*
G02*
X157856000Y-93622000I0J150000D01*
G01*
G37*
G36*
G01*
X157856000Y-92352000D02*
X157856000Y-92052000D01*
G75*
G02*
X158006000Y-91902000I150000J0D01*
G01*
X159681000Y-91902000D01*
G75*
G02*
X159831000Y-92052000I0J-150000D01*
G01*
X159831000Y-92352000D01*
G75*
G02*
X159681000Y-92502000I-150000J0D01*
G01*
X158006000Y-92502000D01*
G75*
G02*
X157856000Y-92352000I0J150000D01*
G01*
G37*
G36*
G01*
X157856000Y-91082000D02*
X157856000Y-90782000D01*
G75*
G02*
X158006000Y-90632000I150000J0D01*
G01*
X159681000Y-90632000D01*
G75*
G02*
X159831000Y-90782000I0J-150000D01*
G01*
X159831000Y-91082000D01*
G75*
G02*
X159681000Y-91232000I-150000J0D01*
G01*
X158006000Y-91232000D01*
G75*
G02*
X157856000Y-91082000I0J150000D01*
G01*
G37*
G36*
G01*
X157856000Y-89812000D02*
X157856000Y-89512000D01*
G75*
G02*
X158006000Y-89362000I150000J0D01*
G01*
X159681000Y-89362000D01*
G75*
G02*
X159831000Y-89512000I0J-150000D01*
G01*
X159831000Y-89812000D01*
G75*
G02*
X159681000Y-89962000I-150000J0D01*
G01*
X158006000Y-89962000D01*
G75*
G02*
X157856000Y-89812000I0J150000D01*
G01*
G37*
G36*
G01*
X157856000Y-88542000D02*
X157856000Y-88242000D01*
G75*
G02*
X158006000Y-88092000I150000J0D01*
G01*
X159681000Y-88092000D01*
G75*
G02*
X159831000Y-88242000I0J-150000D01*
G01*
X159831000Y-88542000D01*
G75*
G02*
X159681000Y-88692000I-150000J0D01*
G01*
X158006000Y-88692000D01*
G75*
G02*
X157856000Y-88542000I0J150000D01*
G01*
G37*
G36*
G01*
X157856000Y-87272000D02*
X157856000Y-86972000D01*
G75*
G02*
X158006000Y-86822000I150000J0D01*
G01*
X159681000Y-86822000D01*
G75*
G02*
X159831000Y-86972000I0J-150000D01*
G01*
X159831000Y-87272000D01*
G75*
G02*
X159681000Y-87422000I-150000J0D01*
G01*
X158006000Y-87422000D01*
G75*
G02*
X157856000Y-87272000I0J150000D01*
G01*
G37*
G36*
G01*
X192433001Y-84643000D02*
X189582999Y-84643000D01*
G75*
G02*
X189333000Y-84393001I0J249999D01*
G01*
X189333000Y-83367999D01*
G75*
G02*
X189582999Y-83118000I249999J0D01*
G01*
X192433001Y-83118000D01*
G75*
G02*
X192683000Y-83367999I0J-249999D01*
G01*
X192683000Y-84393001D01*
G75*
G02*
X192433001Y-84643000I-249999J0D01*
G01*
G37*
G36*
G01*
X192433001Y-90618000D02*
X189582999Y-90618000D01*
G75*
G02*
X189333000Y-90368001I0J249999D01*
G01*
X189333000Y-89342999D01*
G75*
G02*
X189582999Y-89093000I249999J0D01*
G01*
X192433001Y-89093000D01*
G75*
G02*
X192683000Y-89342999I0J-249999D01*
G01*
X192683000Y-90368001D01*
G75*
G02*
X192433001Y-90618000I-249999J0D01*
G01*
G37*
G36*
G01*
X121508000Y-94471500D02*
X121508000Y-93996500D01*
G75*
G02*
X121745500Y-93759000I237500J0D01*
G01*
X122320500Y-93759000D01*
G75*
G02*
X122558000Y-93996500I0J-237500D01*
G01*
X122558000Y-94471500D01*
G75*
G02*
X122320500Y-94709000I-237500J0D01*
G01*
X121745500Y-94709000D01*
G75*
G02*
X121508000Y-94471500I0J237500D01*
G01*
G37*
G36*
G01*
X119758000Y-94471500D02*
X119758000Y-93996500D01*
G75*
G02*
X119995500Y-93759000I237500J0D01*
G01*
X120570500Y-93759000D01*
G75*
G02*
X120808000Y-93996500I0J-237500D01*
G01*
X120808000Y-94471500D01*
G75*
G02*
X120570500Y-94709000I-237500J0D01*
G01*
X119995500Y-94709000D01*
G75*
G02*
X119758000Y-94471500I0J237500D01*
G01*
G37*
D13*
X196240000Y-76186000D03*
X196240000Y-80786000D03*
X196240000Y-78486000D03*
D14*
X202540000Y-78486000D03*
D13*
X196240000Y-92950000D03*
X196240000Y-97550000D03*
X196240000Y-95250000D03*
D14*
X202540000Y-95250000D03*
D13*
X196240000Y-84568000D03*
X196240000Y-89168000D03*
X196240000Y-86868000D03*
D14*
X202540000Y-86868000D03*
D13*
X196240000Y-101572000D03*
X196240000Y-106172000D03*
X196240000Y-103872000D03*
D14*
X202540000Y-103872000D03*
G36*
G01*
X174339500Y-68984000D02*
X174339500Y-68684000D01*
G75*
G02*
X174489500Y-68534000I150000J0D01*
G01*
X176164500Y-68534000D01*
G75*
G02*
X176314500Y-68684000I0J-150000D01*
G01*
X176314500Y-68984000D01*
G75*
G02*
X176164500Y-69134000I-150000J0D01*
G01*
X174489500Y-69134000D01*
G75*
G02*
X174339500Y-68984000I0J150000D01*
G01*
G37*
G36*
G01*
X174339500Y-70254000D02*
X174339500Y-69954000D01*
G75*
G02*
X174489500Y-69804000I150000J0D01*
G01*
X176164500Y-69804000D01*
G75*
G02*
X176314500Y-69954000I0J-150000D01*
G01*
X176314500Y-70254000D01*
G75*
G02*
X176164500Y-70404000I-150000J0D01*
G01*
X174489500Y-70404000D01*
G75*
G02*
X174339500Y-70254000I0J150000D01*
G01*
G37*
G36*
G01*
X174339500Y-71524000D02*
X174339500Y-71224000D01*
G75*
G02*
X174489500Y-71074000I150000J0D01*
G01*
X176164500Y-71074000D01*
G75*
G02*
X176314500Y-71224000I0J-150000D01*
G01*
X176314500Y-71524000D01*
G75*
G02*
X176164500Y-71674000I-150000J0D01*
G01*
X174489500Y-71674000D01*
G75*
G02*
X174339500Y-71524000I0J150000D01*
G01*
G37*
G36*
G01*
X174339500Y-72794000D02*
X174339500Y-72494000D01*
G75*
G02*
X174489500Y-72344000I150000J0D01*
G01*
X176164500Y-72344000D01*
G75*
G02*
X176314500Y-72494000I0J-150000D01*
G01*
X176314500Y-72794000D01*
G75*
G02*
X176164500Y-72944000I-150000J0D01*
G01*
X174489500Y-72944000D01*
G75*
G02*
X174339500Y-72794000I0J150000D01*
G01*
G37*
G36*
G01*
X174339500Y-74064000D02*
X174339500Y-73764000D01*
G75*
G02*
X174489500Y-73614000I150000J0D01*
G01*
X176164500Y-73614000D01*
G75*
G02*
X176314500Y-73764000I0J-150000D01*
G01*
X176314500Y-74064000D01*
G75*
G02*
X176164500Y-74214000I-150000J0D01*
G01*
X174489500Y-74214000D01*
G75*
G02*
X174339500Y-74064000I0J150000D01*
G01*
G37*
G36*
G01*
X174339500Y-75334000D02*
X174339500Y-75034000D01*
G75*
G02*
X174489500Y-74884000I150000J0D01*
G01*
X176164500Y-74884000D01*
G75*
G02*
X176314500Y-75034000I0J-150000D01*
G01*
X176314500Y-75334000D01*
G75*
G02*
X176164500Y-75484000I-150000J0D01*
G01*
X174489500Y-75484000D01*
G75*
G02*
X174339500Y-75334000I0J150000D01*
G01*
G37*
G36*
G01*
X174339500Y-76604000D02*
X174339500Y-76304000D01*
G75*
G02*
X174489500Y-76154000I150000J0D01*
G01*
X176164500Y-76154000D01*
G75*
G02*
X176314500Y-76304000I0J-150000D01*
G01*
X176314500Y-76604000D01*
G75*
G02*
X176164500Y-76754000I-150000J0D01*
G01*
X174489500Y-76754000D01*
G75*
G02*
X174339500Y-76604000I0J150000D01*
G01*
G37*
G36*
G01*
X167414500Y-76604000D02*
X167414500Y-76304000D01*
G75*
G02*
X167564500Y-76154000I150000J0D01*
G01*
X169239500Y-76154000D01*
G75*
G02*
X169389500Y-76304000I0J-150000D01*
G01*
X169389500Y-76604000D01*
G75*
G02*
X169239500Y-76754000I-150000J0D01*
G01*
X167564500Y-76754000D01*
G75*
G02*
X167414500Y-76604000I0J150000D01*
G01*
G37*
G36*
G01*
X167414500Y-75334000D02*
X167414500Y-75034000D01*
G75*
G02*
X167564500Y-74884000I150000J0D01*
G01*
X169239500Y-74884000D01*
G75*
G02*
X169389500Y-75034000I0J-150000D01*
G01*
X169389500Y-75334000D01*
G75*
G02*
X169239500Y-75484000I-150000J0D01*
G01*
X167564500Y-75484000D01*
G75*
G02*
X167414500Y-75334000I0J150000D01*
G01*
G37*
G36*
G01*
X167414500Y-74064000D02*
X167414500Y-73764000D01*
G75*
G02*
X167564500Y-73614000I150000J0D01*
G01*
X169239500Y-73614000D01*
G75*
G02*
X169389500Y-73764000I0J-150000D01*
G01*
X169389500Y-74064000D01*
G75*
G02*
X169239500Y-74214000I-150000J0D01*
G01*
X167564500Y-74214000D01*
G75*
G02*
X167414500Y-74064000I0J150000D01*
G01*
G37*
G36*
G01*
X167414500Y-72794000D02*
X167414500Y-72494000D01*
G75*
G02*
X167564500Y-72344000I150000J0D01*
G01*
X169239500Y-72344000D01*
G75*
G02*
X169389500Y-72494000I0J-150000D01*
G01*
X169389500Y-72794000D01*
G75*
G02*
X169239500Y-72944000I-150000J0D01*
G01*
X167564500Y-72944000D01*
G75*
G02*
X167414500Y-72794000I0J150000D01*
G01*
G37*
G36*
G01*
X167414500Y-71524000D02*
X167414500Y-71224000D01*
G75*
G02*
X167564500Y-71074000I150000J0D01*
G01*
X169239500Y-71074000D01*
G75*
G02*
X169389500Y-71224000I0J-150000D01*
G01*
X169389500Y-71524000D01*
G75*
G02*
X169239500Y-71674000I-150000J0D01*
G01*
X167564500Y-71674000D01*
G75*
G02*
X167414500Y-71524000I0J150000D01*
G01*
G37*
G36*
G01*
X167414500Y-70254000D02*
X167414500Y-69954000D01*
G75*
G02*
X167564500Y-69804000I150000J0D01*
G01*
X169239500Y-69804000D01*
G75*
G02*
X169389500Y-69954000I0J-150000D01*
G01*
X169389500Y-70254000D01*
G75*
G02*
X169239500Y-70404000I-150000J0D01*
G01*
X167564500Y-70404000D01*
G75*
G02*
X167414500Y-70254000I0J150000D01*
G01*
G37*
G36*
G01*
X167414500Y-68984000D02*
X167414500Y-68684000D01*
G75*
G02*
X167564500Y-68534000I150000J0D01*
G01*
X169239500Y-68534000D01*
G75*
G02*
X169389500Y-68684000I0J-150000D01*
G01*
X169389500Y-68984000D01*
G75*
G02*
X169239500Y-69134000I-150000J0D01*
G01*
X167564500Y-69134000D01*
G75*
G02*
X167414500Y-68984000I0J150000D01*
G01*
G37*
G36*
G01*
X188451500Y-85389000D02*
X187976500Y-85389000D01*
G75*
G02*
X187739000Y-85151500I0J237500D01*
G01*
X187739000Y-84576500D01*
G75*
G02*
X187976500Y-84339000I237500J0D01*
G01*
X188451500Y-84339000D01*
G75*
G02*
X188689000Y-84576500I0J-237500D01*
G01*
X188689000Y-85151500D01*
G75*
G02*
X188451500Y-85389000I-237500J0D01*
G01*
G37*
G36*
G01*
X188451500Y-87139000D02*
X187976500Y-87139000D01*
G75*
G02*
X187739000Y-86901500I0J237500D01*
G01*
X187739000Y-86326500D01*
G75*
G02*
X187976500Y-86089000I237500J0D01*
G01*
X188451500Y-86089000D01*
G75*
G02*
X188689000Y-86326500I0J-237500D01*
G01*
X188689000Y-86901500D01*
G75*
G02*
X188451500Y-87139000I-237500J0D01*
G01*
G37*
G36*
G01*
X188451500Y-113837000D02*
X187976500Y-113837000D01*
G75*
G02*
X187739000Y-113599500I0J237500D01*
G01*
X187739000Y-113024500D01*
G75*
G02*
X187976500Y-112787000I237500J0D01*
G01*
X188451500Y-112787000D01*
G75*
G02*
X188689000Y-113024500I0J-237500D01*
G01*
X188689000Y-113599500D01*
G75*
G02*
X188451500Y-113837000I-237500J0D01*
G01*
G37*
G36*
G01*
X188451500Y-115587000D02*
X187976500Y-115587000D01*
G75*
G02*
X187739000Y-115349500I0J237500D01*
G01*
X187739000Y-114774500D01*
G75*
G02*
X187976500Y-114537000I237500J0D01*
G01*
X188451500Y-114537000D01*
G75*
G02*
X188689000Y-114774500I0J-237500D01*
G01*
X188689000Y-115349500D01*
G75*
G02*
X188451500Y-115587000I-237500J0D01*
G01*
G37*
G36*
G01*
X141969500Y-82962000D02*
X141494500Y-82962000D01*
G75*
G02*
X141257000Y-82724500I0J237500D01*
G01*
X141257000Y-82149500D01*
G75*
G02*
X141494500Y-81912000I237500J0D01*
G01*
X141969500Y-81912000D01*
G75*
G02*
X142207000Y-82149500I0J-237500D01*
G01*
X142207000Y-82724500D01*
G75*
G02*
X141969500Y-82962000I-237500J0D01*
G01*
G37*
G36*
G01*
X141969500Y-84712000D02*
X141494500Y-84712000D01*
G75*
G02*
X141257000Y-84474500I0J237500D01*
G01*
X141257000Y-83899500D01*
G75*
G02*
X141494500Y-83662000I237500J0D01*
G01*
X141969500Y-83662000D01*
G75*
G02*
X142207000Y-83899500I0J-237500D01*
G01*
X142207000Y-84474500D01*
G75*
G02*
X141969500Y-84712000I-237500J0D01*
G01*
G37*
G36*
G01*
X141969500Y-92614000D02*
X141494500Y-92614000D01*
G75*
G02*
X141257000Y-92376500I0J237500D01*
G01*
X141257000Y-91801500D01*
G75*
G02*
X141494500Y-91564000I237500J0D01*
G01*
X141969500Y-91564000D01*
G75*
G02*
X142207000Y-91801500I0J-237500D01*
G01*
X142207000Y-92376500D01*
G75*
G02*
X141969500Y-92614000I-237500J0D01*
G01*
G37*
G36*
G01*
X141969500Y-94364000D02*
X141494500Y-94364000D01*
G75*
G02*
X141257000Y-94126500I0J237500D01*
G01*
X141257000Y-93551500D01*
G75*
G02*
X141494500Y-93314000I237500J0D01*
G01*
X141969500Y-93314000D01*
G75*
G02*
X142207000Y-93551500I0J-237500D01*
G01*
X142207000Y-94126500D01*
G75*
G02*
X141969500Y-94364000I-237500J0D01*
G01*
G37*
G36*
G01*
X123116000Y-97993000D02*
X120216000Y-97993000D01*
G75*
G02*
X119966000Y-97743000I0J250000D01*
G01*
X119966000Y-96943000D01*
G75*
G02*
X120216000Y-96693000I250000J0D01*
G01*
X123116000Y-96693000D01*
G75*
G02*
X123366000Y-96943000I0J-250000D01*
G01*
X123366000Y-97743000D01*
G75*
G02*
X123116000Y-97993000I-250000J0D01*
G01*
G37*
G36*
G01*
X123116000Y-102443000D02*
X120216000Y-102443000D01*
G75*
G02*
X119966000Y-102193000I0J250000D01*
G01*
X119966000Y-101393000D01*
G75*
G02*
X120216000Y-101143000I250000J0D01*
G01*
X123116000Y-101143000D01*
G75*
G02*
X123366000Y-101393000I0J-250000D01*
G01*
X123366000Y-102193000D01*
G75*
G02*
X123116000Y-102443000I-250000J0D01*
G01*
G37*
G36*
G01*
X132347000Y-105781000D02*
X132347000Y-104531000D01*
G75*
G02*
X132597000Y-104281000I250000J0D01*
G01*
X133522000Y-104281000D01*
G75*
G02*
X133772000Y-104531000I0J-250000D01*
G01*
X133772000Y-105781000D01*
G75*
G02*
X133522000Y-106031000I-250000J0D01*
G01*
X132597000Y-106031000D01*
G75*
G02*
X132347000Y-105781000I0J250000D01*
G01*
G37*
G36*
G01*
X129372000Y-105781000D02*
X129372000Y-104531000D01*
G75*
G02*
X129622000Y-104281000I250000J0D01*
G01*
X130547000Y-104281000D01*
G75*
G02*
X130797000Y-104531000I0J-250000D01*
G01*
X130797000Y-105781000D01*
G75*
G02*
X130547000Y-106031000I-250000J0D01*
G01*
X129622000Y-106031000D01*
G75*
G02*
X129372000Y-105781000I0J250000D01*
G01*
G37*
G36*
G01*
X125245500Y-104531000D02*
X125245500Y-105781000D01*
G75*
G02*
X124995500Y-106031000I-250000J0D01*
G01*
X124070500Y-106031000D01*
G75*
G02*
X123820500Y-105781000I0J250000D01*
G01*
X123820500Y-104531000D01*
G75*
G02*
X124070500Y-104281000I250000J0D01*
G01*
X124995500Y-104281000D01*
G75*
G02*
X125245500Y-104531000I0J-250000D01*
G01*
G37*
G36*
G01*
X128220500Y-104531000D02*
X128220500Y-105781000D01*
G75*
G02*
X127970500Y-106031000I-250000J0D01*
G01*
X127045500Y-106031000D01*
G75*
G02*
X126795500Y-105781000I0J250000D01*
G01*
X126795500Y-104531000D01*
G75*
G02*
X127045500Y-104281000I250000J0D01*
G01*
X127970500Y-104281000D01*
G75*
G02*
X128220500Y-104531000I0J-250000D01*
G01*
G37*
D16*
X131130000Y-69516000D03*
X130180000Y-69516000D03*
X132080000Y-69516000D03*
X132080000Y-72216000D03*
X131130000Y-72216000D03*
X130180000Y-72216000D03*
G36*
G01*
X176050500Y-87272000D02*
X176050500Y-86972000D01*
G75*
G02*
X176200500Y-86822000I150000J0D01*
G01*
X177875500Y-86822000D01*
G75*
G02*
X178025500Y-86972000I0J-150000D01*
G01*
X178025500Y-87272000D01*
G75*
G02*
X177875500Y-87422000I-150000J0D01*
G01*
X176200500Y-87422000D01*
G75*
G02*
X176050500Y-87272000I0J150000D01*
G01*
G37*
G36*
G01*
X176050500Y-88542000D02*
X176050500Y-88242000D01*
G75*
G02*
X176200500Y-88092000I150000J0D01*
G01*
X177875500Y-88092000D01*
G75*
G02*
X178025500Y-88242000I0J-150000D01*
G01*
X178025500Y-88542000D01*
G75*
G02*
X177875500Y-88692000I-150000J0D01*
G01*
X176200500Y-88692000D01*
G75*
G02*
X176050500Y-88542000I0J150000D01*
G01*
G37*
G36*
G01*
X176050500Y-89812000D02*
X176050500Y-89512000D01*
G75*
G02*
X176200500Y-89362000I150000J0D01*
G01*
X177875500Y-89362000D01*
G75*
G02*
X178025500Y-89512000I0J-150000D01*
G01*
X178025500Y-89812000D01*
G75*
G02*
X177875500Y-89962000I-150000J0D01*
G01*
X176200500Y-89962000D01*
G75*
G02*
X176050500Y-89812000I0J150000D01*
G01*
G37*
G36*
G01*
X176050500Y-91082000D02*
X176050500Y-90782000D01*
G75*
G02*
X176200500Y-90632000I150000J0D01*
G01*
X177875500Y-90632000D01*
G75*
G02*
X178025500Y-90782000I0J-150000D01*
G01*
X178025500Y-91082000D01*
G75*
G02*
X177875500Y-91232000I-150000J0D01*
G01*
X176200500Y-91232000D01*
G75*
G02*
X176050500Y-91082000I0J150000D01*
G01*
G37*
G36*
G01*
X176050500Y-92352000D02*
X176050500Y-92052000D01*
G75*
G02*
X176200500Y-91902000I150000J0D01*
G01*
X177875500Y-91902000D01*
G75*
G02*
X178025500Y-92052000I0J-150000D01*
G01*
X178025500Y-92352000D01*
G75*
G02*
X177875500Y-92502000I-150000J0D01*
G01*
X176200500Y-92502000D01*
G75*
G02*
X176050500Y-92352000I0J150000D01*
G01*
G37*
G36*
G01*
X176050500Y-93622000D02*
X176050500Y-93322000D01*
G75*
G02*
X176200500Y-93172000I150000J0D01*
G01*
X177875500Y-93172000D01*
G75*
G02*
X178025500Y-93322000I0J-150000D01*
G01*
X178025500Y-93622000D01*
G75*
G02*
X177875500Y-93772000I-150000J0D01*
G01*
X176200500Y-93772000D01*
G75*
G02*
X176050500Y-93622000I0J150000D01*
G01*
G37*
G36*
G01*
X176050500Y-94892000D02*
X176050500Y-94592000D01*
G75*
G02*
X176200500Y-94442000I150000J0D01*
G01*
X177875500Y-94442000D01*
G75*
G02*
X178025500Y-94592000I0J-150000D01*
G01*
X178025500Y-94892000D01*
G75*
G02*
X177875500Y-95042000I-150000J0D01*
G01*
X176200500Y-95042000D01*
G75*
G02*
X176050500Y-94892000I0J150000D01*
G01*
G37*
G36*
G01*
X169125500Y-94892000D02*
X169125500Y-94592000D01*
G75*
G02*
X169275500Y-94442000I150000J0D01*
G01*
X170950500Y-94442000D01*
G75*
G02*
X171100500Y-94592000I0J-150000D01*
G01*
X171100500Y-94892000D01*
G75*
G02*
X170950500Y-95042000I-150000J0D01*
G01*
X169275500Y-95042000D01*
G75*
G02*
X169125500Y-94892000I0J150000D01*
G01*
G37*
G36*
G01*
X169125500Y-93622000D02*
X169125500Y-93322000D01*
G75*
G02*
X169275500Y-93172000I150000J0D01*
G01*
X170950500Y-93172000D01*
G75*
G02*
X171100500Y-93322000I0J-150000D01*
G01*
X171100500Y-93622000D01*
G75*
G02*
X170950500Y-93772000I-150000J0D01*
G01*
X169275500Y-93772000D01*
G75*
G02*
X169125500Y-93622000I0J150000D01*
G01*
G37*
G36*
G01*
X169125500Y-92352000D02*
X169125500Y-92052000D01*
G75*
G02*
X169275500Y-91902000I150000J0D01*
G01*
X170950500Y-91902000D01*
G75*
G02*
X171100500Y-92052000I0J-150000D01*
G01*
X171100500Y-92352000D01*
G75*
G02*
X170950500Y-92502000I-150000J0D01*
G01*
X169275500Y-92502000D01*
G75*
G02*
X169125500Y-92352000I0J150000D01*
G01*
G37*
G36*
G01*
X169125500Y-91082000D02*
X169125500Y-90782000D01*
G75*
G02*
X169275500Y-90632000I150000J0D01*
G01*
X170950500Y-90632000D01*
G75*
G02*
X171100500Y-90782000I0J-150000D01*
G01*
X171100500Y-91082000D01*
G75*
G02*
X170950500Y-91232000I-150000J0D01*
G01*
X169275500Y-91232000D01*
G75*
G02*
X169125500Y-91082000I0J150000D01*
G01*
G37*
G36*
G01*
X169125500Y-89812000D02*
X169125500Y-89512000D01*
G75*
G02*
X169275500Y-89362000I150000J0D01*
G01*
X170950500Y-89362000D01*
G75*
G02*
X171100500Y-89512000I0J-150000D01*
G01*
X171100500Y-89812000D01*
G75*
G02*
X170950500Y-89962000I-150000J0D01*
G01*
X169275500Y-89962000D01*
G75*
G02*
X169125500Y-89812000I0J150000D01*
G01*
G37*
G36*
G01*
X169125500Y-88542000D02*
X169125500Y-88242000D01*
G75*
G02*
X169275500Y-88092000I150000J0D01*
G01*
X170950500Y-88092000D01*
G75*
G02*
X171100500Y-88242000I0J-150000D01*
G01*
X171100500Y-88542000D01*
G75*
G02*
X170950500Y-88692000I-150000J0D01*
G01*
X169275500Y-88692000D01*
G75*
G02*
X169125500Y-88542000I0J150000D01*
G01*
G37*
G36*
G01*
X169125500Y-87272000D02*
X169125500Y-86972000D01*
G75*
G02*
X169275500Y-86822000I150000J0D01*
G01*
X170950500Y-86822000D01*
G75*
G02*
X171100500Y-86972000I0J-150000D01*
G01*
X171100500Y-87272000D01*
G75*
G02*
X170950500Y-87422000I-150000J0D01*
G01*
X169275500Y-87422000D01*
G75*
G02*
X169125500Y-87272000I0J150000D01*
G01*
G37*
D17*
X151340000Y-69208000D03*
D18*
X145840000Y-70358000D03*
D17*
X151340000Y-71508000D03*
X197060000Y-67938000D03*
D18*
X191560000Y-69088000D03*
D17*
X197060000Y-70238000D03*
G36*
G01*
X174594000Y-80755500D02*
X174594000Y-80280500D01*
G75*
G02*
X174831500Y-80043000I237500J0D01*
G01*
X175406500Y-80043000D01*
G75*
G02*
X175644000Y-80280500I0J-237500D01*
G01*
X175644000Y-80755500D01*
G75*
G02*
X175406500Y-80993000I-237500J0D01*
G01*
X174831500Y-80993000D01*
G75*
G02*
X174594000Y-80755500I0J237500D01*
G01*
G37*
G36*
G01*
X172844000Y-80755500D02*
X172844000Y-80280500D01*
G75*
G02*
X173081500Y-80043000I237500J0D01*
G01*
X173656500Y-80043000D01*
G75*
G02*
X173894000Y-80280500I0J-237500D01*
G01*
X173894000Y-80755500D01*
G75*
G02*
X173656500Y-80993000I-237500J0D01*
G01*
X173081500Y-80993000D01*
G75*
G02*
X172844000Y-80755500I0J237500D01*
G01*
G37*
G36*
G01*
X175215000Y-102091500D02*
X175215000Y-101616500D01*
G75*
G02*
X175452500Y-101379000I237500J0D01*
G01*
X176027500Y-101379000D01*
G75*
G02*
X176265000Y-101616500I0J-237500D01*
G01*
X176265000Y-102091500D01*
G75*
G02*
X176027500Y-102329000I-237500J0D01*
G01*
X175452500Y-102329000D01*
G75*
G02*
X175215000Y-102091500I0J237500D01*
G01*
G37*
G36*
G01*
X173465000Y-102091500D02*
X173465000Y-101616500D01*
G75*
G02*
X173702500Y-101379000I237500J0D01*
G01*
X174277500Y-101379000D01*
G75*
G02*
X174515000Y-101616500I0J-237500D01*
G01*
X174515000Y-102091500D01*
G75*
G02*
X174277500Y-102329000I-237500J0D01*
G01*
X173702500Y-102329000D01*
G75*
G02*
X173465000Y-102091500I0J237500D01*
G01*
G37*
G36*
G01*
X169514000Y-80755500D02*
X169514000Y-80280500D01*
G75*
G02*
X169751500Y-80043000I237500J0D01*
G01*
X170326500Y-80043000D01*
G75*
G02*
X170564000Y-80280500I0J-237500D01*
G01*
X170564000Y-80755500D01*
G75*
G02*
X170326500Y-80993000I-237500J0D01*
G01*
X169751500Y-80993000D01*
G75*
G02*
X169514000Y-80755500I0J237500D01*
G01*
G37*
G36*
G01*
X167764000Y-80755500D02*
X167764000Y-80280500D01*
G75*
G02*
X168001500Y-80043000I237500J0D01*
G01*
X168576500Y-80043000D01*
G75*
G02*
X168814000Y-80280500I0J-237500D01*
G01*
X168814000Y-80755500D01*
G75*
G02*
X168576500Y-80993000I-237500J0D01*
G01*
X168001500Y-80993000D01*
G75*
G02*
X167764000Y-80755500I0J237500D01*
G01*
G37*
G36*
G01*
X168560000Y-101616500D02*
X168560000Y-102091500D01*
G75*
G02*
X168322500Y-102329000I-237500J0D01*
G01*
X167747500Y-102329000D01*
G75*
G02*
X167510000Y-102091500I0J237500D01*
G01*
X167510000Y-101616500D01*
G75*
G02*
X167747500Y-101379000I237500J0D01*
G01*
X168322500Y-101379000D01*
G75*
G02*
X168560000Y-101616500I0J-237500D01*
G01*
G37*
G36*
G01*
X170310000Y-101616500D02*
X170310000Y-102091500D01*
G75*
G02*
X170072500Y-102329000I-237500J0D01*
G01*
X169497500Y-102329000D01*
G75*
G02*
X169260000Y-102091500I0J237500D01*
G01*
X169260000Y-101616500D01*
G75*
G02*
X169497500Y-101379000I237500J0D01*
G01*
X170072500Y-101379000D01*
G75*
G02*
X170310000Y-101616500I0J-237500D01*
G01*
G37*
G36*
G01*
X137430500Y-72232000D02*
X137905500Y-72232000D01*
G75*
G02*
X138143000Y-72469500I0J-237500D01*
G01*
X138143000Y-73044500D01*
G75*
G02*
X137905500Y-73282000I-237500J0D01*
G01*
X137430500Y-73282000D01*
G75*
G02*
X137193000Y-73044500I0J237500D01*
G01*
X137193000Y-72469500D01*
G75*
G02*
X137430500Y-72232000I237500J0D01*
G01*
G37*
G36*
G01*
X137430500Y-70482000D02*
X137905500Y-70482000D01*
G75*
G02*
X138143000Y-70719500I0J-237500D01*
G01*
X138143000Y-71294500D01*
G75*
G02*
X137905500Y-71532000I-237500J0D01*
G01*
X137430500Y-71532000D01*
G75*
G02*
X137193000Y-71294500I0J237500D01*
G01*
X137193000Y-70719500D01*
G75*
G02*
X137430500Y-70482000I237500J0D01*
G01*
G37*
G36*
G01*
X120887500Y-68992000D02*
X120412500Y-68992000D01*
G75*
G02*
X120175000Y-68754500I0J237500D01*
G01*
X120175000Y-68179500D01*
G75*
G02*
X120412500Y-67942000I237500J0D01*
G01*
X120887500Y-67942000D01*
G75*
G02*
X121125000Y-68179500I0J-237500D01*
G01*
X121125000Y-68754500D01*
G75*
G02*
X120887500Y-68992000I-237500J0D01*
G01*
G37*
G36*
G01*
X120887500Y-70742000D02*
X120412500Y-70742000D01*
G75*
G02*
X120175000Y-70504500I0J237500D01*
G01*
X120175000Y-69929500D01*
G75*
G02*
X120412500Y-69692000I237500J0D01*
G01*
X120887500Y-69692000D01*
G75*
G02*
X121125000Y-69929500I0J-237500D01*
G01*
X121125000Y-70504500D01*
G75*
G02*
X120887500Y-70742000I-237500J0D01*
G01*
G37*
G36*
G01*
X195879000Y-72914500D02*
X195879000Y-73389500D01*
G75*
G02*
X195641500Y-73627000I-237500J0D01*
G01*
X195066500Y-73627000D01*
G75*
G02*
X194829000Y-73389500I0J237500D01*
G01*
X194829000Y-72914500D01*
G75*
G02*
X195066500Y-72677000I237500J0D01*
G01*
X195641500Y-72677000D01*
G75*
G02*
X195879000Y-72914500I0J-237500D01*
G01*
G37*
G36*
G01*
X197629000Y-72914500D02*
X197629000Y-73389500D01*
G75*
G02*
X197391500Y-73627000I-237500J0D01*
G01*
X196816500Y-73627000D01*
G75*
G02*
X196579000Y-73389500I0J237500D01*
G01*
X196579000Y-72914500D01*
G75*
G02*
X196816500Y-72677000I237500J0D01*
G01*
X197391500Y-72677000D01*
G75*
G02*
X197629000Y-72914500I0J-237500D01*
G01*
G37*
G36*
G01*
X192433001Y-76261000D02*
X189582999Y-76261000D01*
G75*
G02*
X189333000Y-76011001I0J249999D01*
G01*
X189333000Y-74985999D01*
G75*
G02*
X189582999Y-74736000I249999J0D01*
G01*
X192433001Y-74736000D01*
G75*
G02*
X192683000Y-74985999I0J-249999D01*
G01*
X192683000Y-76011001D01*
G75*
G02*
X192433001Y-76261000I-249999J0D01*
G01*
G37*
G36*
G01*
X192433001Y-82236000D02*
X189582999Y-82236000D01*
G75*
G02*
X189333000Y-81986001I0J249999D01*
G01*
X189333000Y-80960999D01*
G75*
G02*
X189582999Y-80711000I249999J0D01*
G01*
X192433001Y-80711000D01*
G75*
G02*
X192683000Y-80960999I0J-249999D01*
G01*
X192683000Y-81986001D01*
G75*
G02*
X192433001Y-82236000I-249999J0D01*
G01*
G37*
G36*
G01*
X137318000Y-74438500D02*
X137318000Y-74913500D01*
G75*
G02*
X137080500Y-75151000I-237500J0D01*
G01*
X136505500Y-75151000D01*
G75*
G02*
X136268000Y-74913500I0J237500D01*
G01*
X136268000Y-74438500D01*
G75*
G02*
X136505500Y-74201000I237500J0D01*
G01*
X137080500Y-74201000D01*
G75*
G02*
X137318000Y-74438500I0J-237500D01*
G01*
G37*
G36*
G01*
X139068000Y-74438500D02*
X139068000Y-74913500D01*
G75*
G02*
X138830500Y-75151000I-237500J0D01*
G01*
X138255500Y-75151000D01*
G75*
G02*
X138018000Y-74913500I0J237500D01*
G01*
X138018000Y-74438500D01*
G75*
G02*
X138255500Y-74201000I237500J0D01*
G01*
X138830500Y-74201000D01*
G75*
G02*
X139068000Y-74438500I0J-237500D01*
G01*
G37*
G36*
G01*
X141969500Y-78136000D02*
X141494500Y-78136000D01*
G75*
G02*
X141257000Y-77898500I0J237500D01*
G01*
X141257000Y-77323500D01*
G75*
G02*
X141494500Y-77086000I237500J0D01*
G01*
X141969500Y-77086000D01*
G75*
G02*
X142207000Y-77323500I0J-237500D01*
G01*
X142207000Y-77898500D01*
G75*
G02*
X141969500Y-78136000I-237500J0D01*
G01*
G37*
G36*
G01*
X141969500Y-79886000D02*
X141494500Y-79886000D01*
G75*
G02*
X141257000Y-79648500I0J237500D01*
G01*
X141257000Y-79073500D01*
G75*
G02*
X141494500Y-78836000I237500J0D01*
G01*
X141969500Y-78836000D01*
G75*
G02*
X142207000Y-79073500I0J-237500D01*
G01*
X142207000Y-79648500D01*
G75*
G02*
X141969500Y-79886000I-237500J0D01*
G01*
G37*
G36*
G01*
X187689500Y-74439000D02*
X187214500Y-74439000D01*
G75*
G02*
X186977000Y-74201500I0J237500D01*
G01*
X186977000Y-73626500D01*
G75*
G02*
X187214500Y-73389000I237500J0D01*
G01*
X187689500Y-73389000D01*
G75*
G02*
X187927000Y-73626500I0J-237500D01*
G01*
X187927000Y-74201500D01*
G75*
G02*
X187689500Y-74439000I-237500J0D01*
G01*
G37*
G36*
G01*
X187689500Y-76189000D02*
X187214500Y-76189000D01*
G75*
G02*
X186977000Y-75951500I0J237500D01*
G01*
X186977000Y-75376500D01*
G75*
G02*
X187214500Y-75139000I237500J0D01*
G01*
X187689500Y-75139000D01*
G75*
G02*
X187927000Y-75376500I0J-237500D01*
G01*
X187927000Y-75951500D01*
G75*
G02*
X187689500Y-76189000I-237500J0D01*
G01*
G37*
G36*
G01*
X188451500Y-103282000D02*
X187976500Y-103282000D01*
G75*
G02*
X187739000Y-103044500I0J237500D01*
G01*
X187739000Y-102469500D01*
G75*
G02*
X187976500Y-102232000I237500J0D01*
G01*
X188451500Y-102232000D01*
G75*
G02*
X188689000Y-102469500I0J-237500D01*
G01*
X188689000Y-103044500D01*
G75*
G02*
X188451500Y-103282000I-237500J0D01*
G01*
G37*
G36*
G01*
X188451500Y-105032000D02*
X187976500Y-105032000D01*
G75*
G02*
X187739000Y-104794500I0J237500D01*
G01*
X187739000Y-104219500D01*
G75*
G02*
X187976500Y-103982000I237500J0D01*
G01*
X188451500Y-103982000D01*
G75*
G02*
X188689000Y-104219500I0J-237500D01*
G01*
X188689000Y-104794500D01*
G75*
G02*
X188451500Y-105032000I-237500J0D01*
G01*
G37*
G36*
G01*
X125459000Y-94471500D02*
X125459000Y-93996500D01*
G75*
G02*
X125696500Y-93759000I237500J0D01*
G01*
X126271500Y-93759000D01*
G75*
G02*
X126509000Y-93996500I0J-237500D01*
G01*
X126509000Y-94471500D01*
G75*
G02*
X126271500Y-94709000I-237500J0D01*
G01*
X125696500Y-94709000D01*
G75*
G02*
X125459000Y-94471500I0J237500D01*
G01*
G37*
G36*
G01*
X123709000Y-94471500D02*
X123709000Y-93996500D01*
G75*
G02*
X123946500Y-93759000I237500J0D01*
G01*
X124521500Y-93759000D01*
G75*
G02*
X124759000Y-93996500I0J-237500D01*
G01*
X124759000Y-94471500D01*
G75*
G02*
X124521500Y-94709000I-237500J0D01*
G01*
X123946500Y-94709000D01*
G75*
G02*
X123709000Y-94471500I0J237500D01*
G01*
G37*
G36*
G01*
X136494000Y-107679500D02*
X136494000Y-107204500D01*
G75*
G02*
X136731500Y-106967000I237500J0D01*
G01*
X137306500Y-106967000D01*
G75*
G02*
X137544000Y-107204500I0J-237500D01*
G01*
X137544000Y-107679500D01*
G75*
G02*
X137306500Y-107917000I-237500J0D01*
G01*
X136731500Y-107917000D01*
G75*
G02*
X136494000Y-107679500I0J237500D01*
G01*
G37*
G36*
G01*
X134744000Y-107679500D02*
X134744000Y-107204500D01*
G75*
G02*
X134981500Y-106967000I237500J0D01*
G01*
X135556500Y-106967000D01*
G75*
G02*
X135794000Y-107204500I0J-237500D01*
G01*
X135794000Y-107679500D01*
G75*
G02*
X135556500Y-107917000I-237500J0D01*
G01*
X134981500Y-107917000D01*
G75*
G02*
X134744000Y-107679500I0J237500D01*
G01*
G37*
G36*
G01*
X136494000Y-105139500D02*
X136494000Y-104664500D01*
G75*
G02*
X136731500Y-104427000I237500J0D01*
G01*
X137306500Y-104427000D01*
G75*
G02*
X137544000Y-104664500I0J-237500D01*
G01*
X137544000Y-105139500D01*
G75*
G02*
X137306500Y-105377000I-237500J0D01*
G01*
X136731500Y-105377000D01*
G75*
G02*
X136494000Y-105139500I0J237500D01*
G01*
G37*
G36*
G01*
X134744000Y-105139500D02*
X134744000Y-104664500D01*
G75*
G02*
X134981500Y-104427000I237500J0D01*
G01*
X135556500Y-104427000D01*
G75*
G02*
X135794000Y-104664500I0J-237500D01*
G01*
X135794000Y-105139500D01*
G75*
G02*
X135556500Y-105377000I-237500J0D01*
G01*
X134981500Y-105377000D01*
G75*
G02*
X134744000Y-105139500I0J237500D01*
G01*
G37*
M02*
