G04 #@! TF.GenerationSoftware,KiCad,Pcbnew,5.1.6-c6e7f7d~87~ubuntu18.04.1*
G04 #@! TF.CreationDate,2020-08-27T22:21:22+02:00*
G04 #@! TF.ProjectId,PeakHoldPWMDriver,5065616b-486f-46c6-9450-574d44726976,rev?*
G04 #@! TF.SameCoordinates,Original*
G04 #@! TF.FileFunction,Legend,Bot*
G04 #@! TF.FilePolarity,Positive*
%FSLAX46Y46*%
G04 Gerber Fmt 4.6, Leading zero omitted, Abs format (unit mm)*
G04 Created by KiCad (PCBNEW 5.1.6-c6e7f7d~87~ubuntu18.04.1) date 2020-08-27 22:21:22*
%MOMM*%
%LPD*%
G01*
G04 APERTURE LIST*
%ADD10C,0.120000*%
%ADD11C,0.150000*%
G04 APERTURE END LIST*
D10*
X138500000Y-79756000D02*
X138200000Y-79456000D01*
X138200000Y-80056000D02*
X138200000Y-79456000D01*
X138500000Y-79756000D02*
X138200000Y-80056000D01*
X138700000Y-80506000D02*
X140700000Y-80506000D01*
X138700000Y-76406000D02*
X138700000Y-80506000D01*
X140700000Y-76406000D02*
X138700000Y-76406000D01*
X140700000Y-80506000D02*
X140700000Y-76406000D01*
X138500000Y-90454000D02*
X138200000Y-90154000D01*
X138200000Y-90754000D02*
X138200000Y-90154000D01*
X138500000Y-90454000D02*
X138200000Y-90754000D01*
X138700000Y-91204000D02*
X140700000Y-91204000D01*
X138700000Y-87104000D02*
X138700000Y-91204000D01*
X140700000Y-87104000D02*
X138700000Y-87104000D01*
X140700000Y-91204000D02*
X140700000Y-87104000D01*
X138500000Y-95788000D02*
X138200000Y-95488000D01*
X138200000Y-96088000D02*
X138200000Y-95488000D01*
X138500000Y-95788000D02*
X138200000Y-96088000D01*
X138700000Y-96538000D02*
X140700000Y-96538000D01*
X138700000Y-92438000D02*
X138700000Y-96538000D01*
X140700000Y-92438000D02*
X138700000Y-92438000D01*
X140700000Y-96538000D02*
X140700000Y-92438000D01*
X138500000Y-85120000D02*
X138200000Y-84820000D01*
X138200000Y-85420000D02*
X138200000Y-84820000D01*
X138500000Y-85120000D02*
X138200000Y-85420000D01*
X138700000Y-85870000D02*
X140700000Y-85870000D01*
X138700000Y-81770000D02*
X138700000Y-85870000D01*
X140700000Y-81770000D02*
X138700000Y-81770000D01*
X140700000Y-85870000D02*
X140700000Y-81770000D01*
X201620000Y-75424000D02*
X201620000Y-76884000D01*
X204780000Y-75424000D02*
X204780000Y-77584000D01*
X204780000Y-75424000D02*
X203850000Y-75424000D01*
X201620000Y-75424000D02*
X202550000Y-75424000D01*
X201620000Y-91950000D02*
X201620000Y-93410000D01*
X204780000Y-91950000D02*
X204780000Y-94110000D01*
X204780000Y-91950000D02*
X203850000Y-91950000D01*
X201620000Y-91950000D02*
X202550000Y-91950000D01*
X201620000Y-83568000D02*
X201620000Y-85028000D01*
X204780000Y-83568000D02*
X204780000Y-85728000D01*
X204780000Y-83568000D02*
X203850000Y-83568000D01*
X201620000Y-83568000D02*
X202550000Y-83568000D01*
X201874000Y-100332000D02*
X201874000Y-101792000D01*
X205034000Y-100332000D02*
X205034000Y-102492000D01*
X205034000Y-100332000D02*
X204104000Y-100332000D01*
X201874000Y-100332000D02*
X202804000Y-100332000D01*
X195796000Y-75962000D02*
X200096000Y-75962000D01*
X195796000Y-77962000D02*
X195796000Y-75962000D01*
X200096000Y-77962000D02*
X195796000Y-77962000D01*
X196050000Y-91964000D02*
X200350000Y-91964000D01*
X196050000Y-93964000D02*
X196050000Y-91964000D01*
X200350000Y-93964000D02*
X196050000Y-93964000D01*
X196106000Y-83582000D02*
X200406000Y-83582000D01*
X196106000Y-85582000D02*
X196106000Y-83582000D01*
X200406000Y-85582000D02*
X196106000Y-85582000D01*
X196078000Y-100600000D02*
X200378000Y-100600000D01*
X196078000Y-102600000D02*
X196078000Y-100600000D01*
X200378000Y-102600000D02*
X196078000Y-102600000D01*
D11*
X140952380Y-77622666D02*
X141666666Y-77622666D01*
X141809523Y-77575047D01*
X141904761Y-77479809D01*
X141952380Y-77336952D01*
X141952380Y-77241714D01*
X141952380Y-78098857D02*
X140952380Y-78098857D01*
X140952380Y-78479809D01*
X141000000Y-78575047D01*
X141047619Y-78622666D01*
X141142857Y-78670285D01*
X141285714Y-78670285D01*
X141380952Y-78622666D01*
X141428571Y-78575047D01*
X141476190Y-78479809D01*
X141476190Y-78098857D01*
X141285714Y-79527428D02*
X141952380Y-79527428D01*
X140904761Y-79289333D02*
X141619047Y-79051238D01*
X141619047Y-79670285D01*
X140952380Y-88320666D02*
X141666666Y-88320666D01*
X141809523Y-88273047D01*
X141904761Y-88177809D01*
X141952380Y-88034952D01*
X141952380Y-87939714D01*
X141952380Y-88796857D02*
X140952380Y-88796857D01*
X140952380Y-89177809D01*
X141000000Y-89273047D01*
X141047619Y-89320666D01*
X141142857Y-89368285D01*
X141285714Y-89368285D01*
X141380952Y-89320666D01*
X141428571Y-89273047D01*
X141476190Y-89177809D01*
X141476190Y-88796857D01*
X140952380Y-89701619D02*
X140952380Y-90320666D01*
X141333333Y-89987333D01*
X141333333Y-90130190D01*
X141380952Y-90225428D01*
X141428571Y-90273047D01*
X141523809Y-90320666D01*
X141761904Y-90320666D01*
X141857142Y-90273047D01*
X141904761Y-90225428D01*
X141952380Y-90130190D01*
X141952380Y-89844476D01*
X141904761Y-89749238D01*
X141857142Y-89701619D01*
X140952380Y-93654666D02*
X141666666Y-93654666D01*
X141809523Y-93607047D01*
X141904761Y-93511809D01*
X141952380Y-93368952D01*
X141952380Y-93273714D01*
X141952380Y-94130857D02*
X140952380Y-94130857D01*
X140952380Y-94511809D01*
X141000000Y-94607047D01*
X141047619Y-94654666D01*
X141142857Y-94702285D01*
X141285714Y-94702285D01*
X141380952Y-94654666D01*
X141428571Y-94607047D01*
X141476190Y-94511809D01*
X141476190Y-94130857D01*
X141952380Y-95654666D02*
X141952380Y-95083238D01*
X141952380Y-95368952D02*
X140952380Y-95368952D01*
X141095238Y-95273714D01*
X141190476Y-95178476D01*
X141238095Y-95083238D01*
X140952380Y-82986666D02*
X141666666Y-82986666D01*
X141809523Y-82939047D01*
X141904761Y-82843809D01*
X141952380Y-82700952D01*
X141952380Y-82605714D01*
X141952380Y-83462857D02*
X140952380Y-83462857D01*
X140952380Y-83843809D01*
X141000000Y-83939047D01*
X141047619Y-83986666D01*
X141142857Y-84034285D01*
X141285714Y-84034285D01*
X141380952Y-83986666D01*
X141428571Y-83939047D01*
X141476190Y-83843809D01*
X141476190Y-83462857D01*
X141047619Y-84415238D02*
X141000000Y-84462857D01*
X140952380Y-84558095D01*
X140952380Y-84796190D01*
X141000000Y-84891428D01*
X141047619Y-84939047D01*
X141142857Y-84986666D01*
X141238095Y-84986666D01*
X141380952Y-84939047D01*
X141952380Y-84367619D01*
X141952380Y-84986666D01*
X206152380Y-74969714D02*
X205152380Y-74969714D01*
X205152380Y-75207809D01*
X205200000Y-75350666D01*
X205295238Y-75445904D01*
X205390476Y-75493523D01*
X205580952Y-75541142D01*
X205723809Y-75541142D01*
X205914285Y-75493523D01*
X206009523Y-75445904D01*
X206104761Y-75350666D01*
X206152380Y-75207809D01*
X206152380Y-74969714D01*
X206152380Y-76493523D02*
X206152380Y-75922095D01*
X206152380Y-76207809D02*
X205152380Y-76207809D01*
X205295238Y-76112571D01*
X205390476Y-76017333D01*
X205438095Y-75922095D01*
X205580952Y-77064952D02*
X205533333Y-76969714D01*
X205485714Y-76922095D01*
X205390476Y-76874476D01*
X205342857Y-76874476D01*
X205247619Y-76922095D01*
X205200000Y-76969714D01*
X205152380Y-77064952D01*
X205152380Y-77255428D01*
X205200000Y-77350666D01*
X205247619Y-77398285D01*
X205342857Y-77445904D01*
X205390476Y-77445904D01*
X205485714Y-77398285D01*
X205533333Y-77350666D01*
X205580952Y-77255428D01*
X205580952Y-77064952D01*
X205628571Y-76969714D01*
X205676190Y-76922095D01*
X205771428Y-76874476D01*
X205961904Y-76874476D01*
X206057142Y-76922095D01*
X206104761Y-76969714D01*
X206152380Y-77064952D01*
X206152380Y-77255428D01*
X206104761Y-77350666D01*
X206057142Y-77398285D01*
X205961904Y-77445904D01*
X205771428Y-77445904D01*
X205676190Y-77398285D01*
X205628571Y-77350666D01*
X205580952Y-77255428D01*
X206152380Y-91495714D02*
X205152380Y-91495714D01*
X205152380Y-91733809D01*
X205200000Y-91876666D01*
X205295238Y-91971904D01*
X205390476Y-92019523D01*
X205580952Y-92067142D01*
X205723809Y-92067142D01*
X205914285Y-92019523D01*
X206009523Y-91971904D01*
X206104761Y-91876666D01*
X206152380Y-91733809D01*
X206152380Y-91495714D01*
X206152380Y-93019523D02*
X206152380Y-92448095D01*
X206152380Y-92733809D02*
X205152380Y-92733809D01*
X205295238Y-92638571D01*
X205390476Y-92543333D01*
X205438095Y-92448095D01*
X205152380Y-93876666D02*
X205152380Y-93686190D01*
X205200000Y-93590952D01*
X205247619Y-93543333D01*
X205390476Y-93448095D01*
X205580952Y-93400476D01*
X205961904Y-93400476D01*
X206057142Y-93448095D01*
X206104761Y-93495714D01*
X206152380Y-93590952D01*
X206152380Y-93781428D01*
X206104761Y-93876666D01*
X206057142Y-93924285D01*
X205961904Y-93971904D01*
X205723809Y-93971904D01*
X205628571Y-93924285D01*
X205580952Y-93876666D01*
X205533333Y-93781428D01*
X205533333Y-93590952D01*
X205580952Y-93495714D01*
X205628571Y-93448095D01*
X205723809Y-93400476D01*
X206152380Y-83113714D02*
X205152380Y-83113714D01*
X205152380Y-83351809D01*
X205200000Y-83494666D01*
X205295238Y-83589904D01*
X205390476Y-83637523D01*
X205580952Y-83685142D01*
X205723809Y-83685142D01*
X205914285Y-83637523D01*
X206009523Y-83589904D01*
X206104761Y-83494666D01*
X206152380Y-83351809D01*
X206152380Y-83113714D01*
X206152380Y-84637523D02*
X206152380Y-84066095D01*
X206152380Y-84351809D02*
X205152380Y-84351809D01*
X205295238Y-84256571D01*
X205390476Y-84161333D01*
X205438095Y-84066095D01*
X205152380Y-85256571D02*
X205152380Y-85351809D01*
X205200000Y-85447047D01*
X205247619Y-85494666D01*
X205342857Y-85542285D01*
X205533333Y-85589904D01*
X205771428Y-85589904D01*
X205961904Y-85542285D01*
X206057142Y-85494666D01*
X206104761Y-85447047D01*
X206152380Y-85351809D01*
X206152380Y-85256571D01*
X206104761Y-85161333D01*
X206057142Y-85113714D01*
X205961904Y-85066095D01*
X205771428Y-85018476D01*
X205533333Y-85018476D01*
X205342857Y-85066095D01*
X205247619Y-85113714D01*
X205200000Y-85161333D01*
X205152380Y-85256571D01*
X206406380Y-100353904D02*
X205406380Y-100353904D01*
X205406380Y-100592000D01*
X205454000Y-100734857D01*
X205549238Y-100830095D01*
X205644476Y-100877714D01*
X205834952Y-100925333D01*
X205977809Y-100925333D01*
X206168285Y-100877714D01*
X206263523Y-100830095D01*
X206358761Y-100734857D01*
X206406380Y-100592000D01*
X206406380Y-100353904D01*
X205834952Y-101496761D02*
X205787333Y-101401523D01*
X205739714Y-101353904D01*
X205644476Y-101306285D01*
X205596857Y-101306285D01*
X205501619Y-101353904D01*
X205454000Y-101401523D01*
X205406380Y-101496761D01*
X205406380Y-101687238D01*
X205454000Y-101782476D01*
X205501619Y-101830095D01*
X205596857Y-101877714D01*
X205644476Y-101877714D01*
X205739714Y-101830095D01*
X205787333Y-101782476D01*
X205834952Y-101687238D01*
X205834952Y-101496761D01*
X205882571Y-101401523D01*
X205930190Y-101353904D01*
X206025428Y-101306285D01*
X206215904Y-101306285D01*
X206311142Y-101353904D01*
X206358761Y-101401523D01*
X206406380Y-101496761D01*
X206406380Y-101687238D01*
X206358761Y-101782476D01*
X206311142Y-101830095D01*
X206215904Y-101877714D01*
X206025428Y-101877714D01*
X205930190Y-101830095D01*
X205882571Y-101782476D01*
X205834952Y-101687238D01*
X195468285Y-77414380D02*
X195468285Y-76414380D01*
X195230190Y-76414380D01*
X195087333Y-76462000D01*
X194992095Y-76557238D01*
X194944476Y-76652476D01*
X194896857Y-76842952D01*
X194896857Y-76985809D01*
X194944476Y-77176285D01*
X194992095Y-77271523D01*
X195087333Y-77366761D01*
X195230190Y-77414380D01*
X195468285Y-77414380D01*
X193944476Y-77414380D02*
X194515904Y-77414380D01*
X194230190Y-77414380D02*
X194230190Y-76414380D01*
X194325428Y-76557238D01*
X194420666Y-76652476D01*
X194515904Y-76700095D01*
X193611142Y-76414380D02*
X192944476Y-76414380D01*
X193373047Y-77414380D01*
X195778285Y-93416380D02*
X195778285Y-92416380D01*
X195540190Y-92416380D01*
X195397333Y-92464000D01*
X195302095Y-92559238D01*
X195254476Y-92654476D01*
X195206857Y-92844952D01*
X195206857Y-92987809D01*
X195254476Y-93178285D01*
X195302095Y-93273523D01*
X195397333Y-93368761D01*
X195540190Y-93416380D01*
X195778285Y-93416380D01*
X194254476Y-93416380D02*
X194825904Y-93416380D01*
X194540190Y-93416380D02*
X194540190Y-92416380D01*
X194635428Y-92559238D01*
X194730666Y-92654476D01*
X194825904Y-92702095D01*
X193349714Y-92416380D02*
X193825904Y-92416380D01*
X193873523Y-92892571D01*
X193825904Y-92844952D01*
X193730666Y-92797333D01*
X193492571Y-92797333D01*
X193397333Y-92844952D01*
X193349714Y-92892571D01*
X193302095Y-92987809D01*
X193302095Y-93225904D01*
X193349714Y-93321142D01*
X193397333Y-93368761D01*
X193492571Y-93416380D01*
X193730666Y-93416380D01*
X193825904Y-93368761D01*
X193873523Y-93321142D01*
X195302095Y-85034380D02*
X195302095Y-84034380D01*
X195064000Y-84034380D01*
X194921142Y-84082000D01*
X194825904Y-84177238D01*
X194778285Y-84272476D01*
X194730666Y-84462952D01*
X194730666Y-84605809D01*
X194778285Y-84796285D01*
X194825904Y-84891523D01*
X194921142Y-84986761D01*
X195064000Y-85034380D01*
X195302095Y-85034380D01*
X194254476Y-85034380D02*
X194064000Y-85034380D01*
X193968761Y-84986761D01*
X193921142Y-84939142D01*
X193825904Y-84796285D01*
X193778285Y-84605809D01*
X193778285Y-84224857D01*
X193825904Y-84129619D01*
X193873523Y-84082000D01*
X193968761Y-84034380D01*
X194159238Y-84034380D01*
X194254476Y-84082000D01*
X194302095Y-84129619D01*
X194349714Y-84224857D01*
X194349714Y-84462952D01*
X194302095Y-84558190D01*
X194254476Y-84605809D01*
X194159238Y-84653428D01*
X193968761Y-84653428D01*
X193873523Y-84605809D01*
X193825904Y-84558190D01*
X193778285Y-84462952D01*
X195274095Y-102052380D02*
X195274095Y-101052380D01*
X195036000Y-101052380D01*
X194893142Y-101100000D01*
X194797904Y-101195238D01*
X194750285Y-101290476D01*
X194702666Y-101480952D01*
X194702666Y-101623809D01*
X194750285Y-101814285D01*
X194797904Y-101909523D01*
X194893142Y-102004761D01*
X195036000Y-102052380D01*
X195274095Y-102052380D01*
X194369333Y-101052380D02*
X193702666Y-101052380D01*
X194131238Y-102052380D01*
M02*
