M48
INCH,TZ
T1C0.0157
T2C0.0315
T3C0.0551
T4C0.0787
T5C0.0984
%
G90
G05
T1
X44685Y-33185
X45000Y-26700
X45800Y-31000
X46000Y-29215
X46050Y-26950
X47700Y-28200
X47800Y-29537
X47800Y-32100
X47900Y-31100
X48800Y-31600
X48856Y-32756
X48900Y-34200
X48900Y-35800
X49400Y-30370
X50000Y-37100
X51100Y-29251
X51305Y-36815
X51443Y-38557
X51643Y-38757
X51843Y-38957
X52100Y-32100
X52400Y-32400
X52400Y-34100
X52500Y-26246
X52850Y-37850
X53067Y-27167
X53067Y-33833
X53069Y-35853
X53100Y-38100
X53200Y-40972
X53300Y-38300
X53317Y-38983
X53500Y-29400
X53500Y-37400
X53540Y-34960
X53600Y-33600
X53600Y-35568
X53600Y-36600
X53698Y-30198
X53700Y-39200
X53900Y-27200
X53900Y-31396
X53900Y-34400
X54000Y-32500
X54000Y-33749
X54200Y-35300
X54200Y-36100
X54402Y-37198
X54500Y-26900
X54500Y-31967
X54500Y-32400
X54536Y-33363
X54700Y-38100
X54807Y-27707
X54900Y-31800
X55000Y-36100
X55300Y-39176
X55300Y-41543
X55300Y-41937
X55700Y-31900
X55700Y-41224
X55900Y-28924
X56000Y-30100
X56300Y-30400
X56400Y-29815
X56400Y-42222
X56600Y-40200
X56750Y-28950
X56900Y-40200
X57200Y-30900
X57200Y-31200
X57200Y-31800
X57200Y-34200
X57200Y-35200
X57200Y-35500
X57200Y-35800
X57200Y-36100
X57200Y-37400
X57200Y-39700
X57200Y-40000
X57700Y-39300
X57700Y-45300
X58224Y-38276
X58700Y-39300
X59400Y-32500
X59500Y-39300
X59500Y-42900
X60000Y-45400
X60200Y-42900
X60900Y-42300
X61057Y-29698
X61400Y-41100
X61400Y-41600
X61400Y-42100
X61400Y-42600
X61500Y-45224
X61800Y-38276
X62100Y-30400
X62100Y-32500
X62100Y-33500
X62235Y-40324
X62548Y-38276
X62629Y-40324
X62700Y-28300
X62700Y-29600
X62885Y-43176
X63000Y-26900
X63177Y-42860
X63200Y-28800
X63200Y-31400
X63200Y-35000
X63200Y-40324
X63250Y-30350
X63300Y-39300
X63400Y-36300
X63485Y-41600
X63500Y-34500
X63500Y-40615
X63585Y-32015
X63594Y-43176
X63600Y-29700
X63700Y-27900
X63800Y-26900
X63800Y-38276
X64000Y-42000
X64054Y-29485
X64087Y-42387
X64100Y-33400
X64137Y-30400
X64200Y-35800
X64200Y-38276
X64200Y-40600
X64300Y-43100
X64315Y-31400
X64600Y-35000
X64600Y-35500
X64600Y-36600
X64700Y-39300
X64800Y-40437
X65207Y-40405
X65400Y-27100
X65400Y-30300
X65491Y-41591
X65500Y-29900
X65500Y-42400
X65600Y-28100
X65600Y-34100
X65600Y-40385
X65700Y-36800
X65985Y-36300
X66002Y-37098
X66300Y-38276
X66600Y-33900
X66776Y-39315
X66800Y-38276
X66900Y-33500
X67000Y-28600
X67000Y-42300
X67002Y-30706
X67200Y-38209
X67300Y-33200
X67300Y-33800
X67300Y-40437
X67315Y-32015
X67600Y-27400
X67600Y-31700
X67700Y-35500
X67700Y-39300
X67800Y-36300
X67998Y-37000
X68000Y-30300
X68000Y-40360
X68200Y-28600
X68200Y-35400
X68215Y-34800
X68300Y-29600
X68300Y-42900
X68400Y-41600
X68600Y-36000
X68690Y-41239
X68800Y-36600
X68800Y-38200
X68900Y-32200
X68900Y-34500
X69000Y-31100
X69000Y-45224
X69002Y-40498
X69200Y-32785
X69200Y-39300
X69358Y-38276
X69435Y-40543
X69700Y-27100
X69700Y-41900
X69751Y-38251
X69833Y-30756
X69900Y-33100
X69900Y-33400
X69900Y-33700
X69900Y-45200
X70000Y-27900
X70100Y-31700
X70100Y-38009
X70100Y-40500
X70100Y-40800
X70100Y-41100
X70100Y-41400
X70198Y-35298
X70200Y-45200
X70400Y-40500
X70400Y-40800
X70400Y-41100
X70400Y-41400
X70513Y-44600
X70513Y-44900
X70513Y-45200
X70600Y-29600
X70600Y-29900
X70600Y-30200
X70600Y-31100
X70600Y-31400
X70600Y-31700
X70600Y-33100
X70600Y-33400
X70600Y-33700
X70600Y-34000
X70600Y-34300
X70600Y-34600
X70700Y-26800
X70700Y-27100
X70700Y-28700
X70700Y-38200
X70700Y-40500
X70700Y-40800
X70700Y-41100
X70700Y-41400
X70800Y-27800
X70800Y-28100
X70813Y-43987
X70813Y-44300
X70813Y-44600
X70813Y-44900
X70813Y-45200
X70900Y-29900
X70900Y-30200
X70900Y-31100
X70900Y-31400
X70900Y-31700
X70900Y-33100
X70900Y-33400
X70900Y-33700
X70900Y-34000
X70900Y-34300
X70900Y-34600
X70900Y-34900
X71000Y-26800
X71000Y-27100
X71000Y-28900
X71000Y-29200
X71000Y-36700
X71000Y-37298
X71000Y-38200
X71000Y-40500
X71000Y-40800
X71000Y-41100
X71000Y-41400
X71100Y-27800
X71100Y-28100
X71100Y-43700
X71100Y-44000
X71100Y-44300
X71100Y-44600
X71100Y-44900
X71100Y-45200
X71300Y-26800
X71300Y-27100
X71600Y-28200
X72000Y-34800
X72031Y-28000
X72031Y-32200
X72031Y-37869
X72031Y-39369
X72100Y-44700
X72100Y-45000
X72231Y-39569
X72300Y-32200
X72300Y-34800
X72395Y-26597
X72400Y-28100
X72400Y-44700
X72400Y-45000
X72467Y-39733
X72600Y-32200
X72600Y-34800
X73200Y-38200
X73200Y-38500
X73200Y-38900
X73200Y-39200
X73300Y-26700
X73300Y-27000
X73300Y-27300
X73300Y-27600
X73300Y-27900
X73300Y-31100
X73300Y-31400
X73300Y-31700
X73300Y-32000
X73500Y-38200
X73500Y-38500
X73500Y-38900
X73500Y-39200
X73600Y-26700
X73600Y-27000
X73600Y-27300
X73600Y-27600
X73600Y-27900
X73600Y-31100
X73600Y-31400
X73600Y-31700
X73600Y-32000
X73800Y-38200
X73800Y-38500
X73800Y-38900
X73800Y-39200
X73900Y-26700
X73900Y-27000
X73900Y-27300
X73900Y-27600
X73900Y-27900
X73900Y-31100
X73900Y-31400
X73900Y-31700
X73900Y-32000
X73900Y-42300
X73900Y-42700
X73900Y-43100
X73900Y-43500
X74100Y-38200
X74100Y-38500
X74100Y-38900
X74100Y-39200
X74200Y-26700
X74200Y-27000
X74200Y-27300
X74200Y-27600
X74200Y-27900
X74200Y-31100
X74200Y-31400
X74200Y-31700
X74200Y-32000
X74709Y-27098
X75000Y-43500
X75076Y-33024
X75200Y-36324
X75200Y-39724
X75300Y-43500
X75400Y-26600
X75400Y-29400
X75400Y-29700
X75400Y-30000
X75400Y-32900
X75400Y-33200
X75400Y-36100
X75400Y-36500
X75400Y-39500
X75400Y-40000
X75600Y-43500
X75900Y-43500
X76500Y-37400
X76506Y-31806
X76529Y-35598
X76600Y-40700
X76700Y-28300
X76700Y-33600
X76700Y-40000
X76919Y-35735
X77260Y-37500
X77900Y-43500
X78144Y-28644
X78200Y-36600
X78200Y-40000
X78300Y-33400
X78400Y-34200
X78400Y-38600
X78500Y-26300
X78500Y-29900
X78500Y-30300
X78600Y-30900
X78778Y-30300
X78900Y-37600
X79000Y-29900
X79000Y-34100
X79100Y-31700
X79400Y-34200
X79400Y-37500
X79500Y-41100
X79600Y-35400
X79800Y-34200
X79800Y-37500
X79906Y-40894
X80400Y-31700
X80500Y-40900
X80700Y-26400
X81500Y-28000
X82600Y-26400
X82600Y-27700
X82900Y-35000
X82900Y-38700
X83100Y-39500
X83100Y-42400
T2
X45222Y-44398
X47700Y-42700
T3
X81600Y-28960
X81600Y-30960
X81600Y-32960
X81600Y-34960
X81600Y-36960
X81600Y-38960
X81600Y-40960
X81600Y-42960
X45600Y-30200
X45600Y-32200
X45600Y-34200
X45600Y-36200
X45600Y-38200
X45600Y-40200
T5
X79300Y-27500
X49500Y-27500
X79300Y-44035
X49500Y-44035
T4
G00X52913Y-44200
M15
G01X54487Y-44200
M16
G05
G00X56574Y-44200
M15
G01X58149Y-44200
M16
G05
T0
M30
